<svg width="80" height="80" viewBox="0 0 80 80" fill="none" xmlns="http://www.w3.org/2000/svg">
<g clip-path="url(#clip0)">
<path d="M47.466 29.0086L53.2288 23.2461C53.7567 23.5017 54.3354 23.6365 54.9224 23.6395C55.1835 23.6395 55.445 23.6139 55.7009 23.563C55.9532 23.5141 56.2003 23.439 56.4375 23.3403C56.4863 23.3212 56.5297 23.2881 56.5769 23.2661C56.7636 23.1844 56.9437 23.0886 57.115 22.9787C57.3315 22.8344 57.5333 22.6683 57.7176 22.484C58.4611 21.752 58.8755 20.7497 58.8669 19.7061C58.8669 19.7061 58.8669 19.6959 58.8669 19.6897C58.8669 19.6825 58.8669 19.6775 58.8669 19.6723H58.8492C58.8499 17.5201 57.1212 15.7678 54.9686 15.7379H54.9939C54.4821 15.7372 53.9755 15.8376 53.5031 16.0345C53.321 16.1145 53.1458 16.2087 52.9785 16.3147C52.9309 16.3449 52.8771 16.3632 52.8308 16.3951C51.194 17.4817 50.6136 19.6106 51.4706 21.3783L45.7009 27.1411L26.1415 7.57223C25.6376 7.06698 24.8207 7.05747 24.3056 7.55123C15.7196 16.1887 13.1035 29.1103 17.654 40.4068C17.2964 40.6887 16.9552 40.9902 16.6317 41.3107C14.4696 43.4738 13.2301 46.3931 13.1763 49.4521L5.29771 78.3356C5.18714 78.7319 5.26917 79.1578 5.51949 79.4852C5.76917 79.8126 6.15827 80.0023 6.57035 80H42.0392C42.4391 79.9983 42.8177 79.8159 43.0677 79.5036C43.3171 79.1906 43.4122 78.7811 43.3243 78.3911L38.8105 58.5312C48.9952 60.8947 59.6776 57.8222 67.052 50.4095C67.5461 49.8937 67.5375 49.0778 67.0316 48.5735L47.466 29.0086ZM55.8407 19.0414C56.0917 19.2907 56.2285 19.6329 56.2173 19.9863C56.2219 20.3278 56.0854 20.6562 55.8407 20.896C55.7199 21.0168 55.5739 21.1113 55.4142 21.1726C54.9247 21.3652 54.3679 21.2579 53.9863 20.896C53.4749 20.3836 53.4749 19.5538 53.9863 19.0414C54.1642 18.8731 54.3876 18.7609 54.6281 18.7189C54.7203 18.6903 54.8161 18.6723 54.9125 18.6651C54.9247 18.6644 54.9375 18.6644 54.9493 18.6651C55.2839 18.6644 55.6048 18.7983 55.8394 19.0365L55.8407 19.0414ZM18.5493 43.3442C22.1343 39.7595 27.9473 39.7599 31.5316 43.3448C35.1173 46.9305 35.1173 52.7421 31.5316 56.3274C27.9473 59.9124 22.1343 59.9131 18.5493 56.3284C16.8108 54.6152 15.8325 52.2766 15.8325 49.836C15.8325 47.3953 16.8108 45.0571 18.5493 43.3442ZM8.39679 77.3769L14.4768 55.082C16.4394 59.0413 20.4503 61.5718 24.8689 61.6368C29.2875 61.7027 33.3715 59.2926 35.4503 55.3927L40.4457 77.3769H8.39679ZM38.2186 55.7379L36.8259 49.6122C36.7596 45.602 34.6573 41.9009 31.2469 39.7907C27.8364 37.6808 23.5864 37.4508 19.9683 39.1821C16.2387 29.4521 18.2829 18.4525 25.2587 10.7123L64.1599 49.6171C57.1507 56.0013 47.3426 58.3153 38.2186 55.7379Z" fill="white" fill-opacity="0.8"/>
<path d="M25.0398 56.3935C28.1681 56.3935 30.8606 54.1838 31.4706 51.1163C32.0814 48.0474 30.4394 44.9752 27.5486 43.778C24.6589 42.5812 21.3249 43.5926 19.587 46.194C17.8498 48.7951 18.191 52.2619 20.4039 54.4739C21.6303 55.7071 23.2996 56.3987 25.0398 56.3935ZM22.2583 47.0533C23.7953 45.5168 26.2862 45.5178 27.8226 47.0546C29.359 48.5916 29.3587 51.0834 27.8219 52.6195C26.2645 54.1038 23.8157 54.1038 22.2583 52.6195C20.7202 51.0825 20.7202 48.5903 22.2583 47.0533Z" fill="white" fill-opacity="0.8"/>
<path d="M69.1057 5.76019C65.4232 2.06531 60.4196 -0.00785167 55.2041 2.23478e-05V2.62305C64.6201 2.62305 72.2533 10.2563 72.2533 19.6723H74.8763C74.8829 14.4511 72.8058 9.44293 69.1057 5.76019Z" fill="white" fill-opacity="0.8"/>
<path d="M55.2041 5.24609V7.8688C58.3347 7.86683 61.3376 9.11027 63.5522 11.3242C65.7661 13.5381 67.0089 16.5414 67.0073 19.6723H69.6303C69.6303 11.7051 63.1713 5.24609 55.2041 5.24609Z" fill="white" fill-opacity="0.8"/>
<path d="M59.854 15.0332C61.0912 16.2595 61.7832 17.9308 61.773 19.6723L64.396 19.6841C64.4029 14.6227 60.3104 10.5099 55.2487 10.4918H55.2041L55.2169 13.1149C56.9577 13.105 58.6296 13.7966 59.854 15.0332Z" fill="white" fill-opacity="0.8"/>
<path d="M21.1055 69.5082H27.6629V72.1312H21.1055V69.5082Z" fill="white" fill-opacity="0.8"/>
<path d="M28.9741 69.5082H31.5972V72.1312H28.9741V69.5082Z" fill="white" fill-opacity="0.8"/>
<path d="M17.1709 69.5082H19.7939V72.1312H17.1709V69.5082Z" fill="white" fill-opacity="0.8"/>
</g>
<defs>
<clipPath id="clip0">
<rect width="80" height="80" fill="white"/>
</clipPath>
</defs>
</svg>
