<svg width="80" height="75" viewBox="0 0 80 75" fill="none" xmlns="http://www.w3.org/2000/svg">
<path d="M76 5.33333H66.6667V4C66.6667 1.79115 64.8755 0 62.6667 0H4C1.79115 0 0 1.79115 0 4V28C0 30.2089 1.79115 32 4 32H30.6667V38.6667C30.6667 40.8755 32.4578 42.6667 34.6667 42.6667H36.037L30.4 57.4417C30.0479 57.376 29.6917 57.3406 29.3333 57.3333C26.1667 57.3375 23.438 59.5646 22.8 62.6667H13.3333V57.3333C13.3333 55.1245 11.5422 53.3333 9.33333 53.3333H1.33333C0.596875 53.3333 0 53.9302 0 54.6667V73.3333C0 74.0698 0.596875 74.6667 1.33333 74.6667H9.33333C11.5422 74.6667 13.3333 72.8755 13.3333 70.6667V65.3333H22.8C23.3969 68.3115 25.9318 70.5094 28.9641 70.6792C31.9969 70.849 34.7604 68.9474 35.6865 66.0547C36.612 63.1615 35.4646 60.0094 32.8969 58.3865L38.8917 42.6667H45.3333C47.5422 42.6667 49.3333 40.8755 49.3333 38.6667V32H62.6667C64.8755 32 66.6667 30.2089 66.6667 28V26.6667H76C78.2089 26.6667 80 24.8755 80 22.6667V9.33333C80 7.12448 78.2089 5.33333 76 5.33333ZM10.6667 70.6667C10.6667 71.4031 10.0698 72 9.33333 72H2.66667V56H9.33333C10.0698 56 10.6667 56.5969 10.6667 57.3333V70.6667ZM29.3333 68C27.1245 68 25.3333 66.2089 25.3333 64C25.3333 61.7911 27.1245 60 29.3333 60C31.5422 60 33.3333 61.7911 33.3333 64C33.3333 66.2089 31.5422 68 29.3333 68ZM46.6667 38.6667C46.6667 39.4031 46.0698 40 45.3333 40H34.6667C33.9302 40 33.3333 39.4031 33.3333 38.6667V32H46.6667V38.6667ZM64 28C64 28.7365 63.4031 29.3333 62.6667 29.3333H4C3.26354 29.3333 2.66667 28.7365 2.66667 28V4C2.66667 3.26354 3.26354 2.66667 4 2.66667H62.6667C63.4031 2.66667 64 3.26354 64 4V28ZM77.3333 22.6667C77.3333 23.4031 76.7365 24 76 24H66.6667V8H76C76.7365 8 77.3333 8.59688 77.3333 9.33333V22.6667Z" fill="white" fill-opacity="0.8"/>
<path d="M22.6667 13.3334H9.33333C8.59688 13.3334 8 13.9302 8 14.6667V22.6667C8 23.4032 8.59688 24 9.33333 24H22.6667C23.4031 24 24 23.4032 24 22.6667V14.6667C24 13.9302 23.4031 13.3334 22.6667 13.3334ZM21.3333 21.3334H10.6667V16H21.3333V21.3334Z" fill="white" fill-opacity="0.8"/>
<path d="M8 8H13.3333V10.6667H8V8Z" fill="white" fill-opacity="0.8"/>
<path d="M14.6665 8H19.9998V10.6667H14.6665V8Z" fill="white" fill-opacity="0.8"/>
<path d="M21.3335 8H26.6668V10.6667H21.3335V8Z" fill="white" fill-opacity="0.8"/>
<path d="M58.6665 4H61.3332V6.66667H58.6665V4Z" fill="white" fill-opacity="0.8"/>
</svg>
