<svg width="169" height="161" viewBox="0 0 169 161" fill="none" xmlns="http://www.w3.org/2000/svg">
<path d="M159.886 11.5H140.251V8.625C140.251 3.86216 136.482 0 131.836 0H8.41504C3.76814 0 0 3.86216 0 8.625V60.375C0 65.1378 3.76814 69 8.41504 69H64.5153V83.375C64.5153 88.1378 68.2834 92 72.9303 92H75.8131L63.9543 123.859C63.2136 123.717 62.4641 123.641 61.7103 123.625C55.0484 123.634 49.3079 128.436 47.9657 135.125H28.0501V123.625C28.0501 118.862 24.282 115 19.6351 115H2.80501C1.25568 115 0 116.287 0 117.875V158.125C0 159.713 1.25568 161 2.80501 161H19.6351C24.282 161 28.0501 157.138 28.0501 152.375V140.875H47.9657C49.2214 147.297 54.5542 152.036 60.9334 152.402C67.3137 152.768 73.1275 148.668 75.0757 142.43C77.0228 136.192 74.6089 129.395 69.2071 125.896L81.8187 92H95.3704C100.017 92 103.785 88.1378 103.785 83.375V69H131.836C136.482 69 140.251 65.1378 140.251 60.375V57.5H159.886C164.533 57.5 168.301 53.6378 168.301 48.875V20.125C168.301 15.3622 164.533 11.5 159.886 11.5ZM22.4401 152.375C22.4401 153.963 21.1844 155.25 19.6351 155.25H5.61002V120.75H19.6351C21.1844 120.75 22.4401 122.037 22.4401 123.625V152.375ZM61.7103 146.625C57.0634 146.625 53.2952 142.763 53.2952 138C53.2952 133.237 57.0634 129.375 61.7103 129.375C66.3572 129.375 70.1253 133.237 70.1253 138C70.1253 142.763 66.3572 146.625 61.7103 146.625ZM98.1754 83.375C98.1754 84.963 96.9197 86.25 95.3704 86.25H72.9303C71.381 86.25 70.1253 84.963 70.1253 83.375V69H98.1754V83.375ZM134.641 60.375C134.641 61.963 133.385 63.25 131.836 63.25H8.41504C6.8657 63.25 5.61002 61.963 5.61002 60.375V8.625C5.61002 7.03701 6.8657 5.75 8.41504 5.75H131.836C133.385 5.75 134.641 7.03701 134.641 8.625V60.375ZM162.691 48.875C162.691 50.463 161.435 51.75 159.886 51.75H140.251V17.25H159.886C161.435 17.25 162.691 18.537 162.691 20.125V48.875Z" fill="white"/>
<path d="M47.6852 28.75H19.6351C18.0858 28.75 16.8301 30.037 16.8301 31.625V48.875C16.8301 50.463 18.0858 51.75 19.6351 51.75H47.6852C49.2345 51.75 50.4902 50.463 50.4902 48.875V31.625C50.4902 30.037 49.2345 28.75 47.6852 28.75ZM44.8802 46H22.4401V34.5H44.8802V46Z" fill="white" fill-opacity="0.8"/>
<path d="M16.8301 17.25H28.0501V23H16.8301V17.25Z" fill="white" fill-opacity="0.8"/>
<path d="M30.8564 17.25H42.0765V23H30.8564V17.25Z" fill="white" fill-opacity="0.8"/>
<path d="M44.8789 17.25H56.099V23H44.8789V17.25Z" fill="white" fill-opacity="0.8"/>
<path d="M123.421 8.625H129.031V14.375H123.421V8.625Z" fill="white" fill-opacity="0.8"/>
</svg>
