<svg width="25" height="25" viewBox="0 0 25 25" fill="none" xmlns="http://www.w3.org/2000/svg">
<path d="M22.6562 4.6875H4.6875C4.16968 4.68808 3.67323 4.89404 3.30707 5.2602C2.94092 5.62636 2.73496 6.1228 2.73438 6.64062V7.42188H2.34375C1.82593 7.42246 1.32948 7.62842 0.963324 7.99457C0.597168 8.36073 0.391207 8.85718 0.390625 9.375V18.75C0.391207 19.2678 0.597168 19.7643 0.963324 20.1304C1.32948 20.4966 1.82593 20.7025 2.34375 20.7031H20.3125C20.8303 20.7025 21.3268 20.4966 21.6929 20.1304C22.0591 19.7643 22.265 19.2678 22.2656 18.75V17.9688H22.6562C23.1741 17.9682 23.6705 17.7622 24.0367 17.3961C24.4028 17.0299 24.6088 16.5334 24.6094 16.0156V6.64062C24.6088 6.1228 24.4028 5.62636 24.0367 5.2602C23.6705 4.89404 23.1741 4.68808 22.6562 4.6875ZM2.34375 8.20312H20.3125C20.6232 8.20347 20.9211 8.32705 21.1408 8.54674C21.3604 8.76644 21.484 9.06431 21.4844 9.375H1.17188C1.17222 9.06431 1.2958 8.76644 1.51549 8.54674C1.73519 8.32705 2.03306 8.20347 2.34375 8.20312ZM1.17188 10.1562H21.4844V12.1094H1.17188V10.1562ZM21.4844 18.75C21.484 19.0607 21.3604 19.3586 21.1408 19.5783C20.9211 19.7979 20.6232 19.9215 20.3125 19.9219H2.34375C2.03306 19.9215 1.73519 19.7979 1.51549 19.5783C1.2958 19.3586 1.17222 19.0607 1.17188 18.75V12.8906H21.4844V18.75ZM23.8281 16.0156C23.8278 16.3263 23.7042 16.6242 23.4845 16.8439C23.2648 17.0636 22.9669 17.1872 22.6562 17.1875H22.2656V9.375C22.265 8.85718 22.0591 8.36073 21.6929 7.99457C21.3268 7.62842 20.8303 7.42246 20.3125 7.42188H3.51562V6.64062C3.51597 6.32993 3.63955 6.03206 3.85924 5.81237C4.07894 5.59268 4.37681 5.4691 4.6875 5.46875H22.6562C22.9669 5.4691 23.2648 5.59268 23.4845 5.81237C23.7042 6.03206 23.8278 6.32993 23.8281 6.64062V16.0156Z" fill="#054E9C"/>
<path d="M6.24984 14.4531C5.91267 14.4529 5.57947 14.5259 5.27328 14.6671C4.9162 14.5031 4.52361 14.4314 4.13161 14.4588C3.73961 14.4862 3.36079 14.6117 3.02998 14.8238C2.69917 15.0359 2.427 15.3277 2.23848 15.6725C2.04997 16.0173 1.95117 16.4039 1.95117 16.7969C1.95117 17.1898 2.04997 17.5765 2.23848 17.9212C2.427 18.266 2.69917 18.5579 3.02998 18.77C3.36079 18.982 3.73961 19.1075 4.13161 19.1349C4.52361 19.1623 4.9162 19.0907 5.27328 18.9267C5.5916 19.0726 5.9386 19.1454 6.28874 19.1396C6.63889 19.1338 6.9833 19.0496 7.29663 18.8933C7.60996 18.7369 7.88426 18.5122 8.09936 18.2359C8.31445 17.9595 8.46487 17.6385 8.53956 17.2963C8.61425 16.9542 8.6113 16.5997 8.53095 16.2588C8.45059 15.9179 8.29486 15.5994 8.07521 15.3267C7.85555 15.0539 7.57756 14.8339 7.26168 14.6827C6.94579 14.5315 6.60004 14.4531 6.24984 14.4531ZM5.85921 16.7969C5.85921 17.0309 5.80654 17.2619 5.70511 17.4729C5.60368 17.6838 5.45609 17.8692 5.27328 18.0153C5.09046 17.8692 4.94287 17.6838 4.84144 17.4729C4.74001 17.2619 4.68734 17.0309 4.68734 16.7969C4.68734 16.5628 4.74001 16.3318 4.84144 16.1209C4.94287 15.91 5.09046 15.7246 5.27328 15.5785C5.45609 15.7246 5.60368 15.91 5.70511 16.1209C5.80654 16.3318 5.85921 16.5628 5.85921 16.7969ZM2.73421 16.7969C2.73381 16.5749 2.78077 16.3555 2.87196 16.1532C2.96315 15.9508 3.09647 15.7703 3.26301 15.6236C3.42955 15.4769 3.62547 15.3675 3.83769 15.3026C4.04991 15.2377 4.27354 15.2188 4.49364 15.2472C4.11509 15.6747 3.9061 16.2259 3.9061 16.7969C3.9061 17.3678 4.11509 17.9191 4.49364 18.3465C4.27354 18.3749 4.04991 18.3561 3.83769 18.2912C3.62547 18.2263 3.42955 18.1168 3.26301 17.9701C3.09647 17.8234 2.96315 17.6429 2.87196 17.4406C2.78077 17.2383 2.73381 17.0188 2.73421 16.7969ZM6.24984 18.3594C6.18399 18.3592 6.11822 18.3549 6.05292 18.3465C6.43146 17.9191 6.64046 17.3678 6.64046 16.7969C6.64046 16.2259 6.43146 15.6747 6.05292 15.2472C6.26491 15.2199 6.48026 15.2363 6.68565 15.2955C6.89104 15.3547 7.08209 15.4555 7.24699 15.5915C7.41189 15.7275 7.54713 15.8959 7.64435 16.0862C7.74157 16.2766 7.79869 16.4849 7.81219 16.6982C7.82569 16.9115 7.79527 17.1254 7.72283 17.3265C7.65038 17.5276 7.53744 17.7116 7.391 17.8674C7.24455 18.0231 7.06772 18.1471 6.87144 18.2317C6.67515 18.3163 6.46359 18.3598 6.24984 18.3594Z" fill="#054E9C"/>
<path d="M19.9219 14.8438H13.2812C13.1776 14.8438 13.0783 14.8849 13.005 14.9582C12.9318 15.0314 12.8906 15.1308 12.8906 15.2344C12.8906 15.338 12.9318 15.4373 13.005 15.5106C13.0783 15.5838 13.1776 15.625 13.2812 15.625H19.9219C20.0255 15.625 20.1248 15.5838 20.1981 15.5106C20.2713 15.4373 20.3125 15.338 20.3125 15.2344C20.3125 15.1308 20.2713 15.0314 20.1981 14.9582C20.1248 14.8849 20.0255 14.8438 19.9219 14.8438Z" fill="#054E9C"/>
<path d="M19.9219 16.0156H14.8438C14.7401 16.0156 14.6408 16.0568 14.5675 16.13C14.4943 16.2033 14.4531 16.3026 14.4531 16.4062C14.4531 16.5099 14.4943 16.6092 14.5675 16.6825C14.6408 16.7557 14.7401 16.7969 14.8438 16.7969H19.9219C20.0255 16.7969 20.1248 16.7557 20.1981 16.6825C20.2713 16.6092 20.3125 16.5099 20.3125 16.4062C20.3125 16.3026 20.2713 16.2033 20.1981 16.13C20.1248 16.0568 20.0255 16.0156 19.9219 16.0156Z" fill="#054E9C"/>
<path d="M17.5781 17.1875H17.1875C17.0839 17.1875 16.9845 17.2287 16.9113 17.3019C16.838 17.3752 16.7969 17.4745 16.7969 17.5781C16.7969 17.6817 16.838 17.7811 16.9113 17.8543C16.9845 17.9276 17.0839 17.9688 17.1875 17.9688H17.5781C17.6817 17.9688 17.7811 17.9276 17.8543 17.8543C17.9276 17.7811 17.9688 17.6817 17.9688 17.5781C17.9688 17.4745 17.9276 17.3752 17.8543 17.3019C17.7811 17.2287 17.6817 17.1875 17.5781 17.1875Z" fill="#054E9C"/>
<path d="M19.9219 17.1875H18.75C18.6464 17.1875 18.547 17.2287 18.4738 17.3019C18.4005 17.3752 18.3594 17.4745 18.3594 17.5781C18.3594 17.6817 18.4005 17.7811 18.4738 17.8543C18.547 17.9276 18.6464 17.9688 18.75 17.9688H19.9219C20.0255 17.9688 20.1248 17.9276 20.1981 17.8543C20.2713 17.7811 20.3125 17.6817 20.3125 17.5781C20.3125 17.4745 20.2713 17.3752 20.1981 17.3019C20.1248 17.2287 20.0255 17.1875 19.9219 17.1875Z" fill="#054E9C"/>
</svg>
