<svg width="80" height="80" viewBox="0 0 80 80" fill="none" xmlns="http://www.w3.org/2000/svg">
<g clip-path="url(#clip0)">
<path d="M76 1.99792H4C1.79136 1.99792 0 3.78928 0 5.99792V51.3312C0 52.0678 0.596585 52.6647 1.33324 52.6647H6.66676V73.9979C6.66676 76.2066 8.45811 77.9979 10.6668 77.9979H34.6668C36.8754 77.9979 38.6668 76.2066 38.6668 73.9979V63.3312H52V60.6647H49.0414L47.0414 52.6647H54.6668V73.9979C54.6668 76.2066 56.4581 77.9979 58.6668 77.9979H69.3332C71.5419 77.9979 73.3332 76.2066 73.3332 73.9979V52.6647H78.6668C79.4034 52.6647 80 52.0678 80 51.3312V5.99792C80 3.78928 78.2086 1.99792 76 1.99792ZM4 4.66468H76C76.7367 4.66468 77.3332 5.26127 77.3332 5.99792V41.9979H38.6668C38.6668 39.7893 36.8754 37.9979 34.6668 37.9979H10.6668C8.45811 37.9979 6.66676 39.7893 6.66676 41.9979H2.66676V5.99792C2.66676 5.26127 3.26334 4.66468 4 4.66468ZM36 43.3312H9.33324V41.9979C9.33324 41.2613 9.9301 40.6647 10.6668 40.6647H34.6668C35.4034 40.6647 36 41.2613 36 41.9979V43.3312ZM9.33324 45.9979H36V69.9979H9.33324V45.9979ZM2.66676 49.9979V44.6647H6.66676V49.9979H2.66676ZM34.6668 75.3312H10.6668C9.9301 75.3312 9.33324 74.7346 9.33324 73.9979V72.6647H36V73.9979C36 74.7346 35.4034 75.3312 34.6668 75.3312ZM46.2919 60.6647H38.6668V52.6647H44.2919L46.2919 60.6647ZM57.3332 49.9979C57.3332 49.2613 57.9301 48.6647 58.6668 48.6647H69.3332C70.0699 48.6647 70.6668 49.2613 70.6668 49.9979H57.3332ZM70.6668 52.6647V71.3312H57.3332V52.6647H70.6668ZM69.3332 75.3312H58.6668C57.9301 75.3312 57.3332 74.7346 57.3332 73.9979H70.6668C70.6668 74.7346 70.0699 75.3312 69.3332 75.3312ZM73.3332 49.9979C73.3332 47.7893 71.5419 45.9979 69.3332 45.9979H58.6668C56.4581 45.9979 54.6668 47.7893 54.6668 49.9979H38.6668V44.6647H77.3332V49.9979H73.3332Z" fill="white" fill-opacity="0.8"/>
</g>
<defs>
<clipPath id="clip0">
<rect width="80" height="80" fill="white"/>
</clipPath>
</defs>
</svg>
