<svg width="928" height="513" viewBox="0 0 928 513" fill="none" xmlns="http://www.w3.org/2000/svg">
<circle cx="430.037" cy="236.374" r="5.3657" fill="white"/>
<circle cx="445.24" cy="294.502" r="5.3657" fill="white"/>
<circle cx="504.262" cy="277.511" r="5.3657" fill="white"/>
<circle cx="616.048" cy="265.885" r="5.3657" fill="white"/>
<circle cx="639.366" cy="315.366" r="5.3657" fill="white"/>
<circle cx="487.271" cy="356.208" r="5.3657" fill="white"/>
<circle cx="356.706" cy="378.565" r="5.3657" fill="white"/>
<circle cx="350.445" cy="295.397" r="5.3657" fill="white"/>
<circle cx="341.502" cy="210.44" r="5.3657" fill="white"/>
<circle cx="320.04" cy="129.06" r="5.3657" fill="white"/>
<circle cx="241.343" cy="269.462" r="5.3657" fill="white"/>
<circle cx="297.683" cy="350.842" r="5.3657" fill="white"/>
<circle cx="182.32" cy="355.314" r="5.3657" fill="white"/>
<circle cx="172.483" cy="257.837" r="5.3657" fill="white"/>
<circle cx="175.166" cy="235.48" r="5.3657" fill="white"/>
<circle cx="131.452" cy="418.913" r="5.3657" fill="white"/>
<circle cx="39.3657" cy="430.366" r="5.3657" fill="white"/>
<circle cx="63.3804" cy="319.542" r="5.3657" fill="white"/>
<circle cx="108.989" cy="236.374" r="5.3657" fill="white"/>
<circle cx="13.3003" cy="297.185" r="5.3657" fill="white"/>
<circle cx="7.04051" cy="365.151" r="5.3657" fill="white"/>
<circle cx="452.394" cy="417.019" r="5.3657" fill="white"/>
<circle cx="507.839" cy="173.774" r="5.3657" fill="white"/>
<circle cx="583.854" cy="165.725" r="5.3657" fill="white"/>
<circle cx="630.356" cy="383.036" r="5.3657" fill="white"/>
<circle cx="676.859" cy="273.04" r="5.3657" fill="white"/>
<circle cx="674.176" cy="209.545" r="5.3657" fill="white"/>
<circle cx="672.388" cy="136.214" r="5.3657" fill="white"/>
<circle cx="720.679" cy="76.2971" r="5.3657" fill="white"/>
<circle cx="619.366" cy="82.3657" r="5.3657" fill="white"/>
<circle cx="747.366" cy="10.3657" r="5.3657" fill="white"/>
<circle cx="803.847" cy="174.668" r="5.3657" fill="white"/>
<circle cx="836.936" cy="95.9713" r="5.3657" fill="white"/>
<circle cx="848.562" cy="219.383" r="5.3657" fill="white"/>
<circle cx="769.865" cy="218.488" r="5.3657" fill="white"/>
<circle cx="833.359" cy="336.534" r="5.3657" fill="white"/>
<circle cx="803.366" cy="270.366" r="5.3657" fill="white"/>
<circle cx="740.353" cy="290.925" r="5.3657" fill="white"/>
<circle cx="762.71" cy="409.865" r="5.3657" fill="white"/>
<circle cx="827.993" cy="391.085" r="5.3657" fill="white"/>
<circle cx="908.479" cy="395.556" r="5.3657" fill="white"/>
<circle cx="764.499" cy="469.782" r="5.3657" fill="white"/>
<circle cx="919.21" cy="507.342" r="5.3657" fill="white"/>
<line x1="128.117" y1="419.993" x2="43.1168" y2="429.993" stroke="white" stroke-width="2"/>
<line x1="7.89735" y1="367.559" x2="37.8974" y2="428.559" stroke="white" stroke-width="2"/>
<line x1="63.4883" y1="321.108" x2="39.4883" y2="430.108" stroke="white"/>
<line x1="63.4135" y1="318.719" x2="131.413" y2="418.719" stroke="white"/>
<line x1="63.3132" y1="319.39" x2="7.3132" y2="364.39" stroke="white"/>
<line x1="13.4979" y1="298.045" x2="7.49795" y2="364.045" stroke="white"/>
<line x1="12.7318" y1="297.578" x2="108.732" y2="236.578" stroke="white"/>
<line x1="13.2014" y1="297.542" x2="63.2014" y2="319.542" stroke="white"/>
<line x1="181.852" y1="355.477" x2="62.8515" y2="318.477" stroke="white"/>
<line x1="182.393" y1="355.309" x2="131.393" y2="420.309" stroke="white"/>
<line x1="181.003" y1="355.082" x2="173.003" y2="258.082" stroke="white" stroke-width="2"/>
<line x1="62.5627" y1="319.758" x2="108.563" y2="236.758" stroke="white"/>
<line x1="62.7528" y1="320.565" x2="171.753" y2="258.565" stroke="white"/>
<line x1="130.516" y1="418.876" x2="171.516" y2="258.876" stroke="white"/>
<line x1="62.6977" y1="320.602" x2="174.698" y2="235.602" stroke="white"/>
<line x1="171.504" y1="258.935" x2="174.504" y2="235.935" stroke="white"/>
<line x1="242.563" y1="269.9" x2="174.563" y2="236.9" stroke="white" stroke-width="2"/>
<line x1="241.824" y1="270.433" x2="296.824" y2="350.433" stroke="white" stroke-width="2"/>
<line x1="181.947" y1="356.001" x2="297.942" y2="349.896" stroke="white" stroke-width="2"/>
<line x1="242.923" y1="269.494" x2="171.923" y2="258.494" stroke="white"/>
<line x1="295.7" y1="351.4" x2="171.7" y2="258.4" stroke="white"/>
<line x1="241.411" y1="270.285" x2="182.411" y2="355.285" stroke="white"/>
<line x1="341.254" y1="210.431" x2="241.254" y2="269.431" stroke="white"/>
<line x1="350.366" y1="295.34" x2="298.366" y2="351.34" stroke="white"/>
<line x1="356.571" y1="379.903" x2="297.571" y2="351.903" stroke="white" stroke-width="2"/>
<line x1="356.571" y1="379.903" x2="297.571" y2="351.903" stroke="white" stroke-width="2"/>
<line x1="357.378" y1="378.074" x2="455.378" y2="418.074" stroke="white" stroke-width="2"/>
<line x1="502.94" y1="279.341" x2="452.94" y2="417.341" stroke="white" stroke-width="2"/>
<line x1="502.984" y1="279.179" x2="488.984" y2="356.179" stroke="white" stroke-width="2"/>
<line x1="639.131" y1="315.483" x2="488.131" y2="356.483" stroke="white"/>
<line x1="639.495" y1="315.072" x2="629.495" y2="384.072" stroke="white"/>
<line x1="638.868" y1="315.482" x2="503.868" y2="278.482" stroke="white"/>
<line x1="445.803" y1="297.404" x2="488.803" y2="355.404" stroke="white" stroke-width="2"/>
<line x1="357.302" y1="379.178" x2="444.302" y2="294.284" stroke="white" stroke-width="2"/>
<line x1="350.498" y1="294.958" x2="357.498" y2="378.958" stroke="white"/>
<line x1="341.518" y1="209.133" x2="319.518" y2="129.133" stroke="white"/>
<line x1="341.894" y1="209.511" x2="507.894" y2="173.511" stroke="white"/>
<line x1="342.142" y1="209.52" x2="430.142" y2="235.52" stroke="white"/>
<line x1="350.698" y1="295.602" x2="429.698" y2="235.602" stroke="white"/>
<line x1="506.316" y1="174.387" x2="430.316" y2="236.387" stroke="white"/>
<line x1="342.498" y1="209.953" x2="350.498" y2="293.953" stroke="white"/>
<line x1="342.317" y1="209.614" x2="443.317" y2="292.614" stroke="white"/>
<line x1="241.113" y1="269.513" x2="349.113" y2="294.513" stroke="white"/>
<line x1="451.617" y1="415.322" x2="350.618" y2="295.322" stroke="white"/>
<line x1="451.501" y1="416.024" x2="445.614" y2="295.024" stroke="white"/>
<line x1="349.995" y1="295.5" x2="445.995" y2="294.49" stroke="white"/>
<line x1="430.484" y1="235.875" x2="445.484" y2="293.875" stroke="white"/>
<line x1="506.446" y1="173.225" x2="445.446" y2="294.225" stroke="white"/>
<line x1="503.133" y1="278.482" x2="445.133" y2="294.482" stroke="white"/>
<line x1="503.76" y1="277.438" x2="430.76" y2="237.438" stroke="white"/>
<line x1="503.594" y1="276.708" x2="583.594" y2="165.708" stroke="white"/>
<line x1="507.948" y1="173.503" x2="583.948" y2="165.503" stroke="white"/>
<line x1="615.524" y1="265.154" x2="583.524" y2="166.154" stroke="white"/>
<line x1="674.786" y1="209.452" x2="583.786" y2="166.452" stroke="white"/>
<line x1="674.388" y1="209.684" x2="740.388" y2="290.684" stroke="white"/>
<line x1="629.677" y1="383.618" x2="739.677" y2="290.618" stroke="white"/>
<line x1="630.093" y1="383.509" x2="762.093" y2="408.509" stroke="white"/>
<line x1="763.5" y1="470.016" x2="761.5" y2="409.016" stroke="white"/>
<line x1="763.774" y1="469.554" x2="907.774" y2="396.554" stroke="white"/>
<line x1="764.115" y1="469.513" x2="920.115" y2="506.513" stroke="white"/>
<line x1="908.497" y1="396.946" x2="920.497" y2="506.946" stroke="white"/>
<line x1="907.962" y1="397.499" x2="829.962" y2="391.499" stroke="white"/>
<line x1="908.044" y1="396.498" x2="762.044" y2="409.498" stroke="white"/>
<line x1="828.132" y1="391.482" x2="762.132" y2="409.482" stroke="white"/>
<line x1="918.735" y1="507.424" x2="761.735" y2="409.424" stroke="white"/>
<line x1="834.354" y1="337.354" x2="762.354" y2="409.354" stroke="white"/>
<line x1="834.499" y1="337.037" x2="830.499" y2="391.037" stroke="white"/>
<line x1="833.546" y1="337.21" x2="803.546" y2="272.21" stroke="white"/>
<line x1="770.421" y1="218.73" x2="804.421" y2="271.73" stroke="white"/>
<line x1="849.381" y1="219.324" x2="804.381" y2="272.324" stroke="white"/>
<line x1="849" y1="219.5" x2="772" y2="219.5" stroke="white"/>
<line x1="848.642" y1="219.35" x2="804.643" y2="174.35" stroke="white"/>
<line x1="771.597" y1="218.704" x2="804.597" y2="173.704" stroke="white"/>
<line x1="837.463" y1="96.1898" x2="805.463" y2="174.19" stroke="white"/>
<line x1="837.435" y1="96.2461" x2="768.435" y2="218.246" stroke="white"/>
<line x1="833.562" y1="337.241" x2="767.562" y2="217.241" stroke="white"/>
<line x1="761.509" y1="408.092" x2="739.509" y2="291.092" stroke="white"/>
<line x1="833.776" y1="338.447" x2="739.776" y2="291.447" stroke="white"/>
<line x1="770.462" y1="218.19" x2="740.462" y2="291.19" stroke="white"/>
<line x1="827.625" y1="391.33" x2="739.625" y2="291.33" stroke="white"/>
<line x1="674.474" y1="210.158" x2="639.474" y2="315.158" stroke="white"/>
<line x1="675.5" y1="208.984" x2="677.5" y2="272.984" stroke="white"/>
<line x1="768.255" y1="219.43" x2="677.255" y2="273.43" stroke="white"/>
<line x1="741.86" y1="292.48" x2="676.86" y2="273.48" stroke="white"/>
<line x1="639.625" y1="314.669" x2="676.625" y2="272.669" stroke="white"/>
<line x1="761.579" y1="406.269" x2="676.579" y2="273.269" stroke="white"/>
<line x1="630.539" y1="381.806" x2="676.539" y2="272.806" stroke="white"/>
<line x1="675.058" y1="208.503" x2="770.057" y2="219.503" stroke="white"/>
<line x1="674.707" y1="208.707" x2="616.707" y2="266.707" stroke="white" stroke-width="2"/>
<line x1="677.904" y1="272.995" x2="615.904" y2="266.995" stroke="white" stroke-width="2"/>
<line x1="618.463" y1="83.1895" x2="584.463" y2="166.19" stroke="white"/>
<line x1="620.975" y1="81.5006" x2="720.975" y2="76.5006" stroke="white"/>
<line x1="621.367" y1="81.66" x2="672.367" y2="136.66" stroke="white"/>
<line x1="586.844" y1="164.525" x2="671.844" y2="136.525" stroke="white"/>
<line x1="674.5" y1="210.021" x2="671.5" y2="137.021" stroke="white"/>
<line x1="769.681" y1="218.385" x2="671.681" y2="137.385" stroke="white"/>
<line x1="617.539" y1="264.806" x2="671.539" y2="136.806" stroke="white"/>
<line x1="721.387" y1="77.3163" x2="672.387" y2="137.316" stroke="white"/>
<line x1="721.543" y1="77.8396" x2="585.543" y2="165.84" stroke="white" stroke-width="2"/>
<line x1="721.771" y1="76.3629" x2="802.771" y2="174.363" stroke="white" stroke-width="2"/>
<line x1="803" y1="271.99" x2="804" y2="173.99" stroke="white" stroke-width="2"/>
<line x1="721.473" y1="76.8369" x2="770.473" y2="218.837" stroke="white"/>
<line x1="721.471" y1="77.1666" x2="674.471" y2="210.167" stroke="white"/>
<line x1="721.081" y1="76.5066" x2="837.081" y2="95.5066" stroke="white"/>
<line x1="746.468" y1="11.1771" x2="721.468" y2="77.1771" stroke="white"/>
<line x1="746.244" y1="11.4363" x2="621.244" y2="81.4363" stroke="white"/>
<line x1="616.054" y1="265.497" x2="505.066" y2="277.605" stroke="white"/>
<line x1="615.68" y1="265.384" x2="507.68" y2="175.384" stroke="white"/>
<line x1="616.457" y1="264.798" x2="639.457" y2="316.798" stroke="white"/>
<line x1="502.501" y1="277.976" x2="507.501" y2="174.976" stroke="white"/>
<line x1="451.568" y1="416.748" x2="486.568" y2="356.748" stroke="white"/>
<line x1="342.476" y1="210.152" x2="297.476" y2="351.152" stroke="white"/>
<line x1="240.564" y1="269.756" x2="319.564" y2="128.756" stroke="white"/>
<line x1="507.884" y1="174.486" x2="319.884" y2="129.486" stroke="white"/>
<line x1="429.651" y1="236.358" x2="319.651" y2="129.358" stroke="white"/>
<line x1="6.60779" y1="364.69" x2="108.608" y2="235.69" stroke="white"/>
<line x1="7.20137" y1="364.542" x2="132.201" y2="419.542" stroke="white"/>
<line x1="171.829" y1="257.47" x2="108.829" y2="234.47" stroke="white"/>
</svg>
