<svg width="94" height="80" viewBox="0 0 94 80" fill="none" xmlns="http://www.w3.org/2000/svg">
<mask id="path-2-inside-1" fill="white">
<path fill-rule="evenodd" clip-rule="evenodd" d="M11.8911 64.3121L65.31 78.8699C73.8651 81.2023 82.662 76.0383 84.9527 67.3364L93.256 35.8186C95.5467 27.1166 90.4696 18.1713 81.9144 15.8389C73.3571 13.5065 37.0518 3.61128 28.4967 1.28114C19.9416 -1.05238 11.147 4.11269 8.85405 12.8147L0.550716 44.3324C-1.73997 53.0355 3.33714 61.9797 11.8911 64.3121Z"/>
</mask>
<path d="M65.31 78.8699L65.573 77.9051L65.5729 77.9051L65.31 78.8699ZM84.9527 67.3364L83.9856 67.0816L83.9856 67.0818L84.9527 67.3364ZM93.256 35.8186L94.223 36.0734L94.223 36.0732L93.256 35.8186ZM81.9144 15.8389L82.1775 14.8741L82.1774 14.8741L81.9144 15.8389ZM28.4967 1.28114L28.2335 2.2459L28.2339 2.246L28.4967 1.28114ZM8.85405 12.8147L7.88705 12.5599L7.88704 12.5599L8.85405 12.8147ZM0.550716 44.3324L-0.41629 44.0777L-0.416348 44.0779L0.550716 44.3324ZM11.6282 65.277L65.0471 79.8347L65.5729 77.9051L12.1541 63.3473L11.6282 65.277ZM65.047 79.8347C74.1515 82.3168 83.4911 76.8169 85.9197 67.5909L83.9856 67.0818C81.8328 75.2598 73.5788 80.0877 65.573 77.9051L65.047 79.8347ZM85.9197 67.5911L94.223 36.0734L92.289 35.5639L83.9856 67.0816L85.9197 67.5911ZM94.223 36.0732C96.6499 26.8538 91.2754 17.3545 82.1775 14.8741L81.6514 16.8037C89.6637 18.9881 94.4434 27.3795 92.2889 35.564L94.223 36.0732ZM82.1774 14.8741C73.6201 12.5417 37.3147 2.64646 28.7595 0.316292L28.2339 2.246C36.7889 4.57611 73.094 14.4713 81.6515 16.8037L82.1774 14.8741ZM28.7598 0.316388C19.6549 -2.16709 10.3179 3.3344 7.88705 12.5599L9.82104 13.0695C11.976 4.89098 20.2282 0.0623361 28.2335 2.2459L28.7598 0.316388ZM7.88704 12.5599L-0.416289 44.0777L1.51772 44.5872L9.82105 13.0694L7.88704 12.5599ZM-0.416348 44.0779C-2.84321 53.2983 2.5313 62.7965 11.6281 65.2769L12.1542 63.3474C4.14299 61.163 -0.636739 52.7727 1.51778 44.587L-0.416348 44.0779Z" fill="white" mask="url(#path-2-inside-1)"/>
<path fill-rule="evenodd" clip-rule="evenodd" d="M88.0781 25.2237C88.0781 17.7758 82.1449 11.7364 74.8208 11.7364C70.1823 11.7341 23.6288 11.7364 18.9915 11.7364C11.6684 11.733 5.73075 17.7702 5.72852 25.2203C5.72852 30.373 5.73187 49.7758 5.72852 54.9262C5.72852 62.3752 11.6628 68.4135 18.987 68.4158C26.3089 68.418 67.4932 68.4135 74.8163 68.4158C82.1382 68.418 88.077 62.3809 88.077 54.933C88.0792 47.8231 88.077 32.3302 88.077 25.2237" fill="#FEFEFE"/>
<path fill-rule="evenodd" clip-rule="evenodd" d="M72.1977 24.4653L72.8322 22.6073C73.0056 22.1025 73.1668 21.4422 73.3245 20.9251H73.3536C73.5137 21.4422 73.705 22.0913 73.8941 22.6073L74.5589 24.4653H72.1977ZM74.908 25.9437L75.7316 28.1859H78.3345L75.0188 19.4456H71.8474L68.5831 28.1859H71.0876L71.8485 25.9437H74.908ZM60.6401 28.1859V25.5549C60.6401 24.1296 60.6099 22.8958 60.545 21.742L60.5931 21.7307C61.1146 22.7527 61.8129 23.8828 62.4474 24.8169L64.7291 28.187H67.2694V19.4468H65.0503V21.9887C65.0503 23.3115 65.0962 24.4913 65.2495 25.6462H65.2047C64.6978 24.6059 64.1162 23.6042 63.4646 22.649L61.2444 19.4468H58.4211V28.187H60.6413L60.6401 28.1859ZM53.9035 28.1859H56.3273V19.4445H53.9046V28.1859H53.9035ZM47.2765 28.1859H49.7026V21.1065H52.6188V19.4456H44.4061V21.1065H47.2765V28.1859ZM38.2111 20.9082C38.3812 20.8845 38.7146 20.8451 39.301 20.8451C40.4134 20.8586 41.0803 21.2597 41.0803 22.0586C41.0803 22.8192 40.3641 23.3104 39.1589 23.3104H38.2111V20.9082ZM35.8163 28.187H38.2111V24.7369H38.9373C39.9221 24.7493 40.3787 25.0479 40.6651 26.142C40.983 27.2237 41.2359 27.9256 41.4104 28.1859H43.8835C43.6765 27.849 43.3453 26.7008 43.014 25.7149C42.7432 24.9048 42.3314 24.3234 41.5861 24.0755V24.0383C42.5037 23.7622 43.4706 23.0017 43.4706 21.8896C43.4706 21.0896 43.1237 20.4822 42.4858 20.0665C41.7249 19.5752 40.617 19.3792 39.0336 19.3792C37.7467 19.3792 36.5907 19.4558 35.8152 19.5628V28.1859L35.8163 28.187ZM28.2515 24.4653L28.886 22.6073C29.0595 22.1025 29.2206 21.4422 29.3784 20.9251H29.4086C29.5687 21.4422 29.7578 22.0913 29.948 22.6073L30.615 24.4653H28.2515ZM30.9641 25.9437L31.7877 28.1859H34.3884L31.0738 19.4456H27.9046L24.6381 28.1859H27.1415L27.9046 25.9437H30.9641ZM15.4731 28.1859V19.4456H17.8679V23.3104H17.9149C18.1544 22.9724 18.4073 22.6603 18.6423 22.3493L21.0706 19.4456H24.0361L20.4988 23.1662L24.2275 28.1859H21.4041L18.7878 24.4124L17.8679 25.3363V28.187H15.4731V28.1859ZM44.7418 32.4879H52.4767L62.2863 54.1386L71.9839 32.4879H78.3334L65.2316 60.7707H57.8996L44.7418 32.4879ZM15.4731 32.4969H43.1975V36.8462H32.9583V60.7707H25.7091V36.8451H15.4731V32.4969Z" fill="#007EC5"/>
</svg>
