<svg width="915" height="497" viewBox="0 0 915 497" fill="none" xmlns="http://www.w3.org/2000/svg">
<line x1="122.117" y1="408.993" x2="37.1168" y2="418.993" stroke="white" stroke-width="2"/>
<line x1="1.89735" y1="356.559" x2="31.8974" y2="417.559" stroke="white" stroke-width="2"/>
<line x1="57.4883" y1="310.108" x2="33.4883" y2="419.108" stroke="white"/>
<line x1="57.4135" y1="307.719" x2="125.413" y2="407.719" stroke="white"/>
<line x1="57.3132" y1="308.39" x2="1.3132" y2="353.39" stroke="white"/>
<line x1="7.49795" y1="287.045" x2="1.49795" y2="353.045" stroke="white"/>
<line x1="6.73185" y1="286.578" x2="102.732" y2="225.578" stroke="white"/>
<line x1="7.20137" y1="286.542" x2="57.2014" y2="308.542" stroke="white"/>
<line x1="175.852" y1="344.477" x2="56.8515" y2="307.477" stroke="white"/>
<line x1="176.393" y1="344.309" x2="125.393" y2="409.309" stroke="white"/>
<line x1="175.003" y1="344.082" x2="167.003" y2="247.082" stroke="white" stroke-width="2"/>
<line x1="56.5627" y1="308.758" x2="102.563" y2="225.758" stroke="white"/>
<line x1="56.7528" y1="309.565" x2="165.753" y2="247.565" stroke="white"/>
<line x1="124.516" y1="407.876" x2="165.516" y2="247.876" stroke="white"/>
<line x1="56.6977" y1="309.602" x2="168.698" y2="224.602" stroke="white"/>
<line x1="165.504" y1="247.935" x2="168.504" y2="224.935" stroke="white"/>
<line x1="236.563" y1="258.9" x2="168.563" y2="225.9" stroke="white" stroke-width="2"/>
<line x1="235.824" y1="259.433" x2="290.824" y2="339.433" stroke="white" stroke-width="2"/>
<line x1="175.947" y1="345.001" x2="291.942" y2="338.896" stroke="white" stroke-width="2"/>
<line x1="236.923" y1="258.494" x2="165.923" y2="247.494" stroke="white"/>
<line x1="289.7" y1="340.4" x2="165.7" y2="247.4" stroke="white"/>
<line x1="235.411" y1="259.285" x2="176.411" y2="344.285" stroke="white"/>
<line x1="335.254" y1="199.431" x2="235.254" y2="258.431" stroke="white"/>
<line x1="344.366" y1="284.34" x2="292.366" y2="340.34" stroke="white"/>
<line x1="350.571" y1="368.903" x2="291.571" y2="340.903" stroke="white" stroke-width="2"/>
<line x1="350.571" y1="368.903" x2="291.571" y2="340.903" stroke="white" stroke-width="2"/>
<line x1="351.378" y1="367.074" x2="449.378" y2="407.074" stroke="white" stroke-width="2"/>
<line x1="496.94" y1="268.341" x2="446.94" y2="406.341" stroke="white" stroke-width="2"/>
<line x1="496.984" y1="268.179" x2="482.984" y2="345.179" stroke="white" stroke-width="2"/>
<line x1="633.131" y1="304.483" x2="482.131" y2="345.483" stroke="white"/>
<line x1="633.495" y1="304.072" x2="623.495" y2="373.072" stroke="white"/>
<line x1="632.868" y1="304.482" x2="497.868" y2="267.482" stroke="white"/>
<line x1="439.803" y1="286.404" x2="482.803" y2="344.404" stroke="white" stroke-width="2"/>
<line x1="351.302" y1="368.178" x2="438.302" y2="283.284" stroke="white" stroke-width="2"/>
<line x1="344.498" y1="283.958" x2="351.498" y2="367.958" stroke="white"/>
<line x1="335.518" y1="198.133" x2="313.518" y2="118.133" stroke="white"/>
<line x1="335.894" y1="198.511" x2="501.894" y2="162.511" stroke="white"/>
<line x1="336.142" y1="198.52" x2="424.142" y2="224.52" stroke="white"/>
<line x1="344.698" y1="284.602" x2="423.698" y2="224.602" stroke="white"/>
<line x1="500.316" y1="163.387" x2="424.316" y2="225.387" stroke="white"/>
<line x1="336.498" y1="198.953" x2="344.498" y2="282.953" stroke="white"/>
<line x1="336.317" y1="198.614" x2="437.317" y2="281.614" stroke="white"/>
<line x1="235.113" y1="258.513" x2="343.113" y2="283.513" stroke="white"/>
<line x1="445.617" y1="404.322" x2="344.618" y2="284.322" stroke="white"/>
<line x1="445.501" y1="405.024" x2="439.614" y2="284.024" stroke="white"/>
<line x1="343.995" y1="284.5" x2="439.995" y2="283.49" stroke="white"/>
<line x1="424.484" y1="224.875" x2="439.484" y2="282.875" stroke="white"/>
<line x1="500.446" y1="162.225" x2="439.446" y2="283.225" stroke="white"/>
<line x1="497.133" y1="267.482" x2="439.133" y2="283.482" stroke="white"/>
<line x1="497.76" y1="266.438" x2="424.76" y2="226.438" stroke="white"/>
<line x1="497.594" y1="265.708" x2="577.594" y2="154.708" stroke="white"/>
<line x1="501.948" y1="162.503" x2="577.948" y2="154.503" stroke="white"/>
<line x1="609.524" y1="254.154" x2="577.524" y2="155.154" stroke="white"/>
<line x1="668.786" y1="198.452" x2="577.786" y2="155.452" stroke="white"/>
<line x1="668.388" y1="198.684" x2="734.388" y2="279.684" stroke="white"/>
<line x1="623.677" y1="372.618" x2="733.677" y2="279.618" stroke="white"/>
<line x1="624.093" y1="372.509" x2="756.093" y2="397.509" stroke="white"/>
<line x1="757.5" y1="459.016" x2="755.5" y2="398.016" stroke="white"/>
<line x1="757.774" y1="458.554" x2="901.774" y2="385.554" stroke="white"/>
<line x1="758.115" y1="458.513" x2="914.115" y2="495.513" stroke="white"/>
<line x1="902.497" y1="385.946" x2="914.497" y2="495.946" stroke="white"/>
<line x1="901.962" y1="386.499" x2="823.962" y2="380.499" stroke="white"/>
<line x1="902.044" y1="385.498" x2="756.044" y2="398.498" stroke="white"/>
<line x1="822.132" y1="380.482" x2="756.132" y2="398.482" stroke="white"/>
<line x1="912.735" y1="496.424" x2="755.735" y2="398.424" stroke="white"/>
<line x1="828.354" y1="326.354" x2="756.354" y2="398.354" stroke="white"/>
<line x1="828.499" y1="326.037" x2="824.499" y2="380.037" stroke="white"/>
<line x1="827.546" y1="326.21" x2="797.546" y2="261.21" stroke="white"/>
<line x1="764.421" y1="207.73" x2="798.421" y2="260.73" stroke="white"/>
<line x1="843.381" y1="208.324" x2="798.381" y2="261.324" stroke="white"/>
<line x1="843" y1="208.5" x2="766" y2="208.5" stroke="white"/>
<line x1="842.642" y1="208.35" x2="798.643" y2="163.35" stroke="white"/>
<line x1="765.597" y1="207.704" x2="798.597" y2="162.704" stroke="white"/>
<line x1="831.463" y1="85.1898" x2="799.463" y2="163.19" stroke="white"/>
<line x1="831.435" y1="85.2461" x2="762.435" y2="207.246" stroke="white"/>
<line x1="827.562" y1="326.241" x2="761.562" y2="206.241" stroke="white"/>
<line x1="755.509" y1="397.092" x2="733.509" y2="280.092" stroke="white"/>
<line x1="827.776" y1="327.447" x2="733.776" y2="280.447" stroke="white"/>
<line x1="764.462" y1="207.19" x2="734.462" y2="280.19" stroke="white"/>
<line x1="821.625" y1="380.33" x2="733.625" y2="280.33" stroke="white"/>
<line x1="668.474" y1="199.158" x2="633.474" y2="304.158" stroke="white"/>
<line x1="669.5" y1="197.984" x2="671.5" y2="261.984" stroke="white"/>
<line x1="762.255" y1="208.43" x2="671.255" y2="262.43" stroke="white"/>
<line x1="735.86" y1="281.48" x2="670.86" y2="262.48" stroke="white"/>
<line x1="633.625" y1="303.669" x2="670.625" y2="261.669" stroke="white"/>
<line x1="755.579" y1="395.269" x2="670.579" y2="262.269" stroke="white"/>
<line x1="624.539" y1="370.806" x2="670.539" y2="261.806" stroke="white"/>
<line x1="669.058" y1="197.503" x2="764.057" y2="208.503" stroke="white"/>
<line x1="668.707" y1="197.707" x2="610.707" y2="255.707" stroke="white" stroke-width="2"/>
<line x1="671.904" y1="261.995" x2="609.904" y2="255.995" stroke="white" stroke-width="2"/>
<line x1="612.463" y1="72.1895" x2="578.463" y2="155.19" stroke="white"/>
<line x1="614.975" y1="70.5006" x2="714.975" y2="65.5006" stroke="white"/>
<line x1="615.367" y1="70.66" x2="666.367" y2="125.66" stroke="white"/>
<line x1="580.844" y1="153.525" x2="665.844" y2="125.525" stroke="white"/>
<line x1="668.5" y1="199.021" x2="665.5" y2="126.021" stroke="white"/>
<line x1="763.681" y1="207.385" x2="665.681" y2="126.385" stroke="white"/>
<line x1="611.539" y1="253.806" x2="665.539" y2="125.806" stroke="white"/>
<line x1="715.387" y1="66.3163" x2="666.387" y2="126.316" stroke="white"/>
<line x1="715.543" y1="66.8396" x2="579.543" y2="154.84" stroke="white" stroke-width="2"/>
<line x1="715.771" y1="65.3629" x2="796.771" y2="163.363" stroke="white" stroke-width="2"/>
<line x1="797" y1="260.99" x2="798" y2="162.99" stroke="white" stroke-width="2"/>
<line x1="715.473" y1="65.8369" x2="764.473" y2="207.837" stroke="white"/>
<line x1="715.471" y1="66.1666" x2="668.471" y2="199.167" stroke="white"/>
<line x1="715.081" y1="65.5066" x2="831.081" y2="84.5066" stroke="white"/>
<line x1="740.468" y1="0.177114" x2="715.468" y2="66.1771" stroke="white"/>
<line x1="740.244" y1="0.436253" x2="615.244" y2="70.4363" stroke="white"/>
<line x1="610.054" y1="254.497" x2="499.066" y2="266.605" stroke="white"/>
<line x1="609.68" y1="254.384" x2="501.68" y2="164.384" stroke="white"/>
<line x1="610.457" y1="253.798" x2="633.457" y2="305.798" stroke="white"/>
<line x1="496.501" y1="266.976" x2="501.501" y2="163.976" stroke="white"/>
<line x1="445.568" y1="405.748" x2="480.568" y2="345.748" stroke="white"/>
<line x1="336.476" y1="199.152" x2="291.476" y2="340.152" stroke="white"/>
<line x1="234.564" y1="258.756" x2="313.564" y2="117.756" stroke="white"/>
<line x1="501.884" y1="163.486" x2="313.884" y2="118.486" stroke="white"/>
<line x1="423.651" y1="225.358" x2="313.651" y2="118.358" stroke="white"/>
<line x1="0.607792" y1="353.69" x2="102.608" y2="224.69" stroke="white"/>
<line x1="1.20137" y1="353.542" x2="126.201" y2="408.542" stroke="white"/>
<line x1="165.829" y1="246.47" x2="102.829" y2="223.47" stroke="white"/>
</svg>
