<svg width="16" height="20" viewBox="0 0 16 20" fill="none" xmlns="http://www.w3.org/2000/svg">
<path d="M7.99999 0C3.94035 0 0.637207 3.30314 0.637207 7.3632C0.637207 8.42222 0.853964 9.43334 1.28113 10.3687C3.12203 14.3971 6.65156 18.6501 7.6897 19.8575C7.76748 19.9478 7.88087 19.9998 8.0002 19.9998C8.11953 19.9998 8.23292 19.9478 8.3107 19.8575C9.34843 18.6503 12.878 14.3975 14.7195 10.3687C15.1468 9.43334 15.3634 8.42222 15.3634 7.3632C15.363 3.30314 12.0598 0 7.99999 0ZM7.99999 11.1877C5.89116 11.1877 4.17532 9.47182 4.17532 7.36299C4.17532 5.25396 5.89116 3.53812 7.99999 3.53812C10.1088 3.53812 11.8247 5.25396 11.8247 7.36299C11.8249 9.47182 10.109 11.1877 7.99999 11.1877Z" fill="white"/>
</svg>
