<svg width="190" height="60" viewBox="0 0 190 60" fill="none" xmlns="http://www.w3.org/2000/svg">
<path d="M178.883 26.5C177.191 18.85 169.941 13 161 13C153.991 13 147.95 16.6 145.05 22C137.559 22.9 132 28.525 132 35.5C132 42.925 138.526 49 146.5 49H177.917C184.683 49 190 44.05 190 37.75C190 31.9 184.926 26.95 178.883 26.5Z" fill="url(#paint0_linear)"/>
<path d="M152.935 28.0857H149V25H160.805L161.439 28.0857H156.479V43H152.935V28.0857ZM173.105 25L169.405 43H164.505L160.805 25H164.558L165.991 33.3314L166.877 38.7314H167.033L167.919 33.3314L169.352 25H173.105Z" fill="white"/>
<path d="M4.48 18H14.08V22.8H6.4L6.28 23.04L12.68 34.72C13.9867 37.0667 14.64 38.8533 14.64 40.08C14.64 42.7733 13.7467 44.7467 11.96 46H1.36V41.36H9.64L9.76 41.12L2.56 28.2C1.52 26.3333 1 24.8133 1 23.64C1 20.8667 2.16 18.9867 4.48 18ZM25.3078 25.56H28.1478L29.1478 26.96C29.7078 26.4533 30.2411 26.0933 30.7478 25.88C31.2811 25.6667 32.0678 25.56 33.1078 25.56H37.5478C38.7211 27.0533 39.5211 28.5467 39.9478 30.04C40.3745 31.5333 40.5878 33.4 40.5878 35.64V46H35.2678V35.24C35.2678 32.7867 34.8945 30.96 34.1478 29.76H30.3078C30.8945 30.9067 31.1878 32.4667 31.1878 34.44V46H25.8678V35.24C25.8678 32.7067 25.5211 30.88 24.8278 29.76H21.7478V46H16.4278V25.56H20.5878L21.3078 27C21.8945 26.4667 22.4411 26.0933 22.9478 25.88C23.4811 25.6667 24.2678 25.56 25.3078 25.56ZM52.6897 36.76H48.4097C47.8497 37.4533 47.5697 38.32 47.5697 39.36C47.5697 40.4 47.863 41.2133 48.4497 41.8H52.6897V36.76ZM44.0897 25.56H54.0097C55.6097 26.52 56.663 27.6267 57.1697 28.88C57.6764 30.1067 57.9297 31.7867 57.9297 33.92V39.92C57.9297 42.1333 57.983 44.16 58.0897 46H53.5297L52.8097 44.56C51.7697 45.52 50.303 46 48.4097 46H45.8897C43.623 44.5067 42.4897 42.36 42.4897 39.56C42.4897 36.7333 43.6497 34.5067 45.9697 32.88H49.7297C50.7697 32.88 51.743 33.2 52.6497 33.84V31.84C52.6497 30.8 52.1964 30.1067 51.2897 29.76H44.0897V25.56ZM60.61 46V25.56H64.41L65.41 27.72C66.4767 26.28 67.8233 25.56 69.45 25.56H71.01V30.92H65.93V46H60.61ZM73.7044 37.08V29.76H70.9444V25.56H73.7044V20H79.0244V25.56H82.3044V29.76H79.0244V38.36C79.0244 39.9867 79.3044 41.1333 79.8644 41.8H82.3044V46H76.6244C75.211 44.6933 74.3577 43.28 74.0644 41.76C73.8244 40.48 73.7044 38.92 73.7044 37.08ZM86.9253 18H96.5253V22.8H88.8453L88.7253 23.04L95.1253 34.72C96.432 37.0667 97.0853 38.8533 97.0853 40.08C97.0853 42.7733 96.192 44.7467 94.4053 46H83.8053V41.36H92.0853L92.2053 41.12L85.0053 28.2C83.9653 26.3333 83.4453 24.8133 83.4453 23.64C83.4453 20.8667 84.6053 18.9867 86.9253 18ZM98.8731 46V18H104.193V32.84H104.753L108.513 25.56H113.713L108.993 34.48L113.753 46H108.473L104.793 37.04H104.193V46H98.8731ZM114.594 34.76V25.56H119.914V34.8C119.914 37.12 120.38 39.0533 121.314 40.6H123.674C124.554 39.08 124.994 37.1467 124.994 34.8V25.56H130.314V34.48C130.314 36.48 130.047 38.24 129.514 39.76C129.007 41.28 128.167 43 126.994 44.92L124.314 49.28C123.834 50.1067 123.327 50.72 122.794 51.12C122.26 51.52 121.567 51.8133 120.714 52H114.394V47.8H118.714C119.274 47.64 119.74 47.36 120.114 46.96C120.487 46.56 120.874 45.9867 121.274 45.24L121.514 44.8H118.754C117.474 43.76 116.46 42.36 115.714 40.6C114.967 38.8133 114.594 36.8667 114.594 34.76Z" fill="url(#paint1_linear)"/>
<defs>
<linearGradient id="paint0_linear" x1="161" y1="13" x2="161" y2="49" gradientUnits="userSpaceOnUse">
<stop stop-color="#0092D9"/>
<stop offset="1" stop-color="#004691"/>
</linearGradient>
<linearGradient id="paint1_linear" x1="65.657" y1="18" x2="65.657" y2="52" gradientUnits="userSpaceOnUse">
<stop stop-color="#0092D9"/>
<stop offset="1" stop-color="#004691"/>
</linearGradient>
</defs>
</svg>
