<svg width="257" height="81" viewBox="0 0 257 81" fill="none" xmlns="http://www.w3.org/2000/svg">
<path fill-rule="evenodd" clip-rule="evenodd" d="M217.35 17.55C229.421 17.55 239.209 25.4475 241.492 35.775C249.65 36.3825 256.5 43.065 256.5 50.9625C256.5 59.4675 249.322 66.15 240.188 66.15H197.775C187.01 66.15 178.2 57.9488 178.2 47.925C178.2 38.5088 185.704 30.915 195.818 29.7C199.733 22.41 207.889 17.55 217.35 17.55ZM201.15 37.9157H206.462V58.05H211.247V37.9157H217.943L217.087 33.75L222.082 58.05H228.697L233.692 33.75H228.625L226.691 44.9974L225.495 52.2874H225.284L224.088 44.9974L222.153 33.75H217.087H201.15V37.9157Z" fill="white"/>
<path d="M6.04761 24.3H19.0076V30.78H8.63961L8.47761 31.104L17.1176 46.872C18.8817 50.0401 19.7636 52.452 19.7636 54.108C19.7636 57.744 18.5577 60.4081 16.1456 62.1H1.83561V55.836H13.0136L13.1756 55.512L3.45561 38.07C2.05161 35.55 1.34961 33.498 1.34961 31.914C1.34961 28.1701 2.91561 25.6321 6.04761 24.3ZM34.1651 34.506H37.9991L39.3491 36.396C40.1051 35.712 40.8251 35.226 41.5091 34.938C42.2291 34.6501 43.2911 34.506 44.6951 34.506H50.6891C52.2731 36.522 53.3531 38.5381 53.9291 40.554C54.5052 42.57 54.7931 45.09 54.7931 48.114V62.1H47.6111V47.574C47.6111 44.2621 47.1072 41.796 46.0991 40.176H40.9151C41.7072 41.7241 42.1031 43.8301 42.1031 46.494V62.1H34.9211V47.574C34.9211 44.1541 34.4531 41.688 33.5171 40.176H29.3591V62.1H22.1771V34.506H27.7931L28.7651 36.45C29.5572 35.7301 30.2951 35.226 30.9791 34.938C31.6991 34.6501 32.7611 34.506 34.1651 34.506ZM71.1307 49.626H65.3527C64.5967 50.562 64.2187 51.732 64.2187 53.136C64.2187 54.54 64.6147 55.638 65.4067 56.43H71.1307V49.626ZM59.5207 34.506H72.9127C75.0727 35.802 76.4947 37.2961 77.1787 38.988C77.8627 40.6441 78.2047 42.9121 78.2047 45.792V53.892C78.2047 56.88 78.2766 59.616 78.4207 62.1H72.2647L71.2927 60.156C69.8887 61.452 67.9087 62.1 65.3527 62.1H61.9507C58.8907 60.0841 57.3607 57.186 57.3607 53.406C57.3607 49.59 58.9267 46.5841 62.0587 44.388H67.1347C68.5387 44.388 69.8527 44.82 71.0767 45.684V42.984C71.0767 41.58 70.4647 40.6441 69.2407 40.176H59.5207V34.506ZM81.8231 62.1V34.506H86.9531L88.3031 37.422C89.7432 35.478 91.5611 34.506 93.7571 34.506H95.8631V41.742H89.0051V62.1H81.8231ZM99.5005 50.058V40.176H95.7745V34.506H99.5005V27H106.683V34.506H111.111V40.176H106.683V51.786C106.683 53.9821 107.061 55.53 107.817 56.43H111.111V62.1H103.443C101.534 60.336 100.382 58.428 99.9865 56.376C99.6625 54.648 99.5005 52.542 99.5005 50.058ZM117.349 24.3H130.309V30.78H119.941L119.779 31.104L128.419 46.872C130.183 50.0401 131.065 52.452 131.065 54.108C131.065 57.744 129.859 60.4081 127.447 62.1H113.137V55.836H124.315L124.477 55.512L114.757 38.07C113.353 35.55 112.651 33.498 112.651 31.914C112.651 28.1701 114.217 25.6321 117.349 24.3ZM133.478 62.1V24.3H140.66V44.334H141.416L146.492 34.506H153.512L147.14 46.548L153.566 62.1H146.438L141.47 50.004H140.66V62.1H133.478ZM154.702 46.926V34.506H161.883V46.98C161.883 50.112 162.513 52.722 163.773 54.81H166.96C168.148 52.758 168.742 50.1481 168.742 46.98V34.506H175.923V46.548C175.923 49.248 175.563 51.624 174.844 53.676C174.159 55.728 173.025 58.05 171.441 60.642L167.824 66.528C167.176 67.6441 166.491 68.472 165.771 69.012C165.051 69.552 164.115 69.948 162.964 70.2H154.431V64.53H160.263C161.02 64.314 161.649 63.936 162.154 63.396C162.657 62.856 163.18 62.0821 163.719 61.074L164.044 60.48H160.317C158.589 59.076 157.221 57.186 156.214 54.81C155.205 52.398 154.702 49.7701 154.702 46.926Z" fill="white"/>
</svg>
