<svg width="144" height="152" viewBox="0 0 144 152" fill="none" xmlns="http://www.w3.org/2000/svg">
<g clip-path="url(#clip0)">
<path d="M83.0654 62.1275L93.1503 51.9711C94.0741 52.4216 95.0869 52.6592 96.114 52.6644C96.5711 52.6644 97.0286 52.6193 97.4765 52.5297C97.918 52.4436 98.3503 52.3111 98.7654 52.1371C98.851 52.1035 98.9268 52.0451 99.0095 52.0064C99.3362 51.8624 99.6514 51.6936 99.9511 51.4999C100.33 51.2454 100.683 50.9528 101.006 50.6279C102.307 49.3378 103.032 47.5712 103.017 45.7318C103.017 45.7318 103.017 45.7139 103.017 45.7029C103.017 45.6902 103.017 45.6815 103.017 45.6723H102.986C102.987 41.879 99.962 38.7906 96.195 38.7379H96.2392C95.3435 38.7368 94.457 38.9137 93.6303 39.2607C93.3116 39.4018 93.005 39.5677 92.7122 39.7545C92.629 39.8077 92.5348 39.8401 92.4538 39.8962C89.5894 41.8113 88.5738 45.5636 90.0734 48.6792L79.9765 58.8361L45.7476 24.3459C44.8657 23.4554 43.4361 23.4387 42.5346 24.3089C27.5092 39.5324 22.931 62.3067 30.8944 82.2169C30.2686 82.7137 29.6715 83.2451 29.1053 83.81C25.3217 87.6224 23.1526 92.7676 23.0584 98.1592L9.27087 149.066C9.07738 149.765 9.22092 150.515 9.65899 151.093C10.0959 151.67 10.7769 152.004 11.498 152H73.5684C74.2683 151.997 74.9309 151.675 75.3684 151.125C75.8047 150.573 75.9712 149.852 75.8174 149.164L67.9183 114.161C85.7415 118.327 104.436 112.911 117.341 99.8465C118.205 98.9375 118.191 97.4994 117.305 96.6107L83.0654 62.1275ZM97.7211 44.5603C98.1603 44.9998 98.3997 45.6029 98.3802 46.2257C98.3882 46.8276 98.1494 47.4064 97.7211 47.8291C97.5098 48.0419 97.2543 48.2085 96.9747 48.3166C96.1181 48.656 95.1437 48.4669 94.476 47.8291C93.5809 46.9259 93.5809 45.4635 94.476 44.5603C94.7872 44.2637 95.1782 44.0659 95.599 43.9919C95.7604 43.9416 95.928 43.9098 96.0968 43.8971C96.1181 43.8959 96.1404 43.8959 96.1611 43.8971C96.7467 43.8959 97.3083 44.1318 97.7188 44.5516L97.7211 44.5603ZM32.4612 87.394C38.7349 81.0761 48.9077 81.0766 55.1802 87.3951C61.4551 93.7148 61.4551 103.958 55.1802 110.277C48.9077 116.595 38.7349 116.597 32.4612 110.279C29.4188 107.259 27.7067 103.137 27.7067 98.8358C27.7067 94.5342 29.4188 90.413 32.4612 87.394ZM14.6943 147.377L25.3344 108.082C28.7689 115.06 35.7878 119.52 43.5205 119.635C51.2531 119.751 58.4 115.503 62.0378 108.63L70.7798 147.377H14.6943ZM66.8825 109.238L64.4452 98.4414C64.3293 91.3735 60.6501 84.8503 54.6819 81.131C48.7136 77.4123 41.2761 77.0069 34.9444 80.0583C28.4175 62.9093 31.995 43.5224 44.2025 29.8803L112.28 98.4501C100.014 109.702 82.8495 113.781 66.8825 109.238Z" fill="white"/>
<path d="M43.8201 110.393C49.2946 110.393 54.0066 106.499 55.074 101.092C56.143 95.6834 53.2694 90.2686 48.2106 88.1586C43.1535 86.0492 37.319 87.8319 34.2778 92.4168C31.2376 97.0012 31.8348 103.112 35.7074 107.01C37.8535 109.184 40.7748 110.403 43.8201 110.393ZM38.9525 93.9313C41.6423 91.2233 46.0013 91.2251 48.69 93.9336C51.3787 96.6427 51.3782 101.034 48.6889 103.742C45.9634 106.358 41.6779 106.358 38.9525 103.742C36.2609 101.033 36.2609 96.6404 38.9525 93.9313Z" fill="white"/>
<path d="M120.934 21.1523C114.49 14.64 105.734 10.9861 96.6064 11V15.6231C113.084 15.6231 126.443 29.0766 126.443 45.6723H131.033C131.044 36.4701 127.409 27.6431 120.934 21.1523Z" fill="white"/>
<path d="M96.6064 20.2462V24.8687C102.085 24.8652 107.34 27.0568 111.216 30.9588C115.09 34.8608 117.265 40.1541 117.262 45.6723H121.852C121.852 31.6301 110.549 20.2462 96.6064 20.2462Z" fill="white" fill-opacity="0.7"/>
<path d="M104.744 37.4959C106.909 39.6573 108.12 42.6029 108.102 45.6723L112.692 45.6931C112.704 36.7725 105.542 29.5235 96.6845 29.4917H96.6064L96.6288 34.1148C99.6753 34.0975 102.601 35.3164 104.744 37.4959Z" fill="white" fill-opacity="0.3"/>
<path d="M36.9346 133.508H48.4101V138.131H36.9346V133.508Z" fill="white"/>
<path d="M50.7041 133.508H55.2944V138.131H50.7041V133.508Z" fill="white"/>
<path d="M30.0498 133.508H34.6401V138.131H30.0498V133.508Z" fill="white"/>
</g>
<path d="M129.92 13.4692C120.935 4.82935 108.726 -0.0183597 96 5.22562e-05V6.13353C118.975 6.13353 137.6 23.9824 137.6 46H144C144.016 33.7913 138.948 22.0806 129.92 13.4692Z" fill="white"/>
<defs>
<clipPath id="clip0">
<rect y="11" width="140" height="141" fill="white"/>
</clipPath>
</defs>
</svg>
