<svg width="80" height="80" viewBox="0 0 80 80" fill="none" xmlns="http://www.w3.org/2000/svg">
<path d="M40 0C17.9089 0 0 17.9089 0 40C0 62.0911 17.9089 80 40 80C62.0911 80 80 62.0911 80 40C79.9753 17.9193 62.0807 0.0247397 40 0ZM40 77.3333C19.3815 77.3333 2.66667 60.6185 2.66667 40C2.66667 19.3815 19.3815 2.66667 40 2.66667C60.6185 2.66667 77.3333 19.3815 77.3333 40C77.3099 60.6087 60.6087 77.3099 40 77.3333Z" fill="white" fill-opacity="0.8"/>
<path d="M40.0003 10.6667C28.1455 10.7813 17.501 17.9539 12.943 28.8979C8.38443 39.8419 10.7907 52.4493 19.0589 60.9454C19.5797 61.4649 20.4222 61.4649 20.943 60.9454L28.943 52.9454C29.4632 52.4246 29.4632 51.5808 28.943 51.06C25.8701 48.1921 24.0876 44.2026 24.0003 40.0001C23.9912 32.5535 29.126 26.0873 36.3812 24.4096C43.637 22.7319 51.0889 26.2878 54.3499 32.9825C47.8805 33.6654 40.3499 34.5079 39.1312 34.8497C36.3675 35.6908 34.7653 38.5678 35.5055 41.3601C35.8467 42.7488 36.738 43.9389 37.9749 44.6563C39.1383 45.3347 40.5277 45.5105 41.8232 45.1427C43.0537 44.7976 50.0042 41.5281 55.9391 38.6921C55.9736 39.1212 56.0003 39.5535 56.0003 39.9962C55.9124 44.198 54.1299 48.1856 51.0576 51.0535C50.5374 51.5743 50.5374 52.418 51.0576 52.9389L59.0576 60.9389C59.5784 61.4584 60.4209 61.4584 60.9417 60.9389C69.2054 52.4421 71.6084 39.8373 67.0505 28.8966C62.4932 17.9552 51.8519 10.7839 40.0003 10.6667ZM38.667 21.4011C36.3011 21.5678 33.9893 22.1882 31.8577 23.2292L27.8577 16.2963C31.2132 14.5717 34.8988 13.5847 38.667 13.4011V21.4011ZM41.3337 13.4011C45.1038 13.5821 48.792 14.5671 52.1494 16.2904L48.1494 23.224C46.0159 22.1817 43.7021 21.5574 41.3337 21.3855V13.4011ZM21.3975 41.3334C21.5934 43.6856 22.2744 45.9721 23.3975 48.0483L16.098 52.267C14.4534 48.8471 13.5322 45.1251 13.3909 41.3334H21.3975ZM21.3975 38.6667H13.3975C13.5784 34.8966 14.5635 31.2084 16.2868 27.851L23.2204 31.851C22.182 33.9851 21.5641 36.2989 21.4014 38.6667H21.3975ZM20.0231 58.0919C19.0478 57.0027 18.1702 55.8302 17.4001 54.588L24.8135 50.308C25.2256 50.8744 25.6605 51.4324 26.1468 51.9734L20.0231 58.0919ZM24.5498 29.5398L17.626 25.5398C19.6787 22.3738 22.3766 19.6759 25.5433 17.6225L29.5433 24.547C27.5778 25.8803 25.8831 27.575 24.5498 29.5398ZM50.4534 24.5613L54.4534 17.6283C57.6201 19.6811 60.318 22.379 62.3708 25.5457L55.4378 29.5457C54.1077 27.5828 52.4163 25.8914 50.4534 24.5613ZM41.1019 42.5802C40.4977 42.7507 39.8499 42.668 39.3083 42.351C38.6956 41.9903 38.2555 41.3966 38.0882 40.7052C37.6989 39.3145 38.4775 37.864 39.8525 37.42C40.887 37.1296 48.9548 36.2266 56.5843 35.4291C49.5882 38.7826 42.1338 42.2878 41.1019 42.5802ZM65.2829 32.9708C65.1071 32.349 64.5114 31.9428 63.8682 32.0066C63.1162 32.0815 60.4574 32.3464 57.1442 32.6908C57.0244 32.4096 56.8988 32.1335 56.7673 31.8601L63.71 27.851C65.4333 31.2084 66.4183 34.8966 66.5993 38.6667H58.5993C58.5713 38.267 58.527 37.8666 58.4736 37.4786C61.4853 36.032 63.8936 34.864 64.5778 34.532C65.1605 34.2514 65.4574 33.5932 65.2829 32.9708ZM58.6032 41.3334H66.6097C66.4684 45.1251 65.5472 48.8471 63.9027 52.267L56.6071 48.0548C57.7301 45.9766 58.4092 43.6876 58.6032 41.3334ZM59.9775 58.0919L53.859 51.9734C54.3402 51.4324 54.7751 50.8744 55.1924 50.308L62.6058 54.588C61.8337 55.8308 60.9541 57.0033 59.9775 58.0919Z" fill="white" fill-opacity="0.8"/>
<path d="M58.6667 62.6667H21.3333C20.597 62.6667 20 63.2638 20 64.0001V69.3334C20 70.0697 20.597 70.6667 21.3333 70.6667H58.6667C59.403 70.6667 60 70.0697 60 69.3334V64.0001C60 63.2638 59.403 62.6667 58.6667 62.6667ZM57.3333 68.0001H22.6667V65.3334H57.3333V68.0001Z" fill="white" fill-opacity="0.8"/>
<path d="M4 38.6667H9.33333V41.3334H4V38.6667Z" fill="white" fill-opacity="0.8"/>
<path d="M13.7236 64.3899L16.3896 61.7239L18.2757 63.6093L15.609 66.276L13.7236 64.3899Z" fill="white" fill-opacity="0.8"/>
<path d="M13.7236 15.6093L15.609 13.7239L18.2757 16.3905L16.3903 18.276L13.7236 15.6093Z" fill="white" fill-opacity="0.8"/>
<path d="M38.667 4H41.3337V9.33333H38.667V4Z" fill="white" fill-opacity="0.8"/>
<path d="M61.7236 16.3905L64.3896 13.7239L66.2757 15.6099L63.609 18.276L61.7236 16.3905Z" fill="white" fill-opacity="0.8"/>
<path d="M70.667 38.6667H76.0003V41.3334H70.667V38.6667Z" fill="white" fill-opacity="0.8"/>
<path d="M61.7236 63.6093L63.6097 61.7239L66.2757 64.3905L64.3903 66.276L61.7236 63.6093Z" fill="white" fill-opacity="0.8"/>
</svg>
