<svg id="logosvg" width="924" height="508" viewBox="0 0 924 508" fill="none" xmlns="http://www.w3.org/2000/svg">
            <style type="text/css">
                #logosvg {
                    fill: rgb(255, 255, 255);
                }

                @keyframes draw {
                    from {
                        fill: rgba(255, 255, 255, 0);
                    }

                    to {
                        fill: rgba(255, 255, 255, 1);
                    }
                }

                .st0 {
                    fill: rgb(255, 255, 255);
                    fill:
                        transparent;
                    stroke-dasharray:
                        1000;
                    stroke-dashoffset:
                        1000;
                    animation:
                        dash 10s linear forwards, draw .5s linear forwards 2s;
                }

                @keyframes dash {
                    to {
                        stroke-dashoffset:
                            0;
                    }
                }
            </style>
            <path class="st0"
                d="M429.037 236.74C432 236.74 434.403 234.337 434.403 231.374C434.403 228.411 432 226.008 429.037 226.008C426.074 226.008 423.671 228.411 423.671 231.374C423.671 234.337 426.074 236.74 429.037 236.74Z"
                fill="white" />
            <path class="st0"
                d="M444.24 294.868C447.204 294.868 449.606 292.465 449.606 289.502C449.606 286.539 447.204 284.136 444.24 284.136C441.277 284.136 438.875 286.539 438.875 289.502C438.875 292.465 441.277 294.868 444.24 294.868Z"
                fill="white" />
            <path class="st0"
                d="M503.262 277.877C506.226 277.877 508.628 275.474 508.628 272.511C508.628 269.548 506.226 267.145 503.262 267.145C500.299 267.145 497.896 269.548 497.896 272.511C497.896 275.474 500.299 277.877 503.262 277.877Z"
                fill="white" />
            <path class="st0"
                d="M615.048 266.251C618.012 266.251 620.414 263.848 620.414 260.885C620.414 257.922 618.012 255.519 615.048 255.519C612.085 255.519 609.683 257.922 609.683 260.885C609.683 263.848 612.085 266.251 615.048 266.251Z"
                fill="white" />
            <path class="st0"
                d="M638.366 315.732C641.329 315.732 643.731 313.329 643.731 310.366C643.731 307.403 641.329 305 638.366 305C635.402 305 633 307.403 633 310.366C633 313.329 635.402 315.732 638.366 315.732Z"
                fill="white" />
            <path class="st0"
                d="M486.271 356.574C489.234 356.574 491.637 354.171 491.637 351.208C491.637 348.245 489.234 345.842 486.271 345.842C483.308 345.842 480.905 348.245 480.905 351.208C480.905 354.171 483.308 356.574 486.271 356.574Z"
                fill="white" />
            <path class="st0"
                d="M355.706 378.931C358.669 378.931 361.072 376.528 361.072 373.565C361.072 370.602 358.669 368.199 355.706 368.199C352.743 368.199 350.34 370.602 350.34 373.565C350.34 376.528 352.743 378.931 355.706 378.931Z"
                fill="white" />
            <path class="st0"
                d="M349.446 295.763C352.409 295.763 354.811 293.36 354.811 290.397C354.811 287.434 352.409 285.031 349.446 285.031C346.482 285.031 344.08 287.434 344.08 290.397C344.08 293.36 346.482 295.763 349.446 295.763Z"
                fill="white" />
            <path class="st0"
                d="M340.503 210.806C343.466 210.806 345.869 208.403 345.869 205.44C345.869 202.477 343.466 200.074 340.503 200.074C337.54 200.074 335.137 202.477 335.137 205.44C335.137 208.403 337.54 210.806 340.503 210.806Z"
                fill="white" />
            <path class="st0"
                d="M319.04 129.426C322.003 129.426 324.406 127.023 324.406 124.06C324.406 121.097 322.003 118.694 319.04 118.694C316.077 118.694 313.674 121.097 313.674 124.06C313.674 127.023 316.077 129.426 319.04 129.426Z"
                fill="white" />
            <path class="st0"
                d="M240.343 269.828C243.307 269.828 245.709 267.425 245.709 264.462C245.709 261.499 243.307 259.096 240.343 259.096C237.38 259.096 234.978 261.499 234.978 264.462C234.978 267.425 237.38 269.828 240.343 269.828Z"
                fill="white" />
            <path class="st0"
                d="M296.683 351.208C299.646 351.208 302.049 348.805 302.049 345.842C302.049 342.879 299.646 340.476 296.683 340.476C293.72 340.476 291.317 342.879 291.317 345.842C291.317 348.805 293.72 351.208 296.683 351.208Z"
                fill="white" />
            <path class="st0"
                d="M181.32 355.68C184.283 355.68 186.686 353.277 186.686 350.314C186.686 347.351 184.283 344.948 181.32 344.948C178.356 344.948 175.954 347.351 175.954 350.314C175.954 353.277 178.356 355.68 181.32 355.68Z"
                fill="white" />
            <path class="st0"
                d="M171.483 258.203C174.446 258.203 176.849 255.8 176.849 252.837C176.849 249.874 174.446 247.471 171.483 247.471C168.52 247.471 166.117 249.874 166.117 252.837C166.117 255.8 168.52 258.203 171.483 258.203Z"
                fill="white" />
            <path class="st0"
                d="M174.166 235.846C177.129 235.846 179.532 233.443 179.532 230.48C179.532 227.517 177.129 225.114 174.166 225.114C171.203 225.114 168.8 227.517 168.8 230.48C168.8 233.443 171.203 235.846 174.166 235.846Z"
                fill="white" />
            <path class="st0"
                d="M107.989 236.74C110.953 236.74 113.355 234.337 113.355 231.374C113.355 228.411 110.953 226.008 107.989 226.008C105.026 226.008 102.624 228.411 102.624 231.374C102.624 234.337 105.026 236.74 107.989 236.74Z"
                fill="white" />
            <path class="st0"
                d="M451.394 417.385C454.357 417.385 456.76 414.982 456.76 412.019C456.76 409.056 454.357 406.653 451.394 406.653C448.431 406.653 446.028 409.056 446.028 412.019C446.028 414.982 448.431 417.385 451.394 417.385Z"
                fill="white" />
            <path class="st0"
                d="M506.839 174.14C509.802 174.14 512.205 171.737 512.205 168.774C512.205 165.811 509.802 163.408 506.839 163.408C503.875 163.408 501.473 165.811 501.473 168.774C501.473 171.737 503.875 174.14 506.839 174.14Z"
                fill="white" />
            <path class="st0"
                d="M582.854 166.092C585.817 166.092 588.22 163.689 588.22 160.726C588.22 157.763 585.817 155.36 582.854 155.36C579.891 155.36 577.488 157.763 577.488 160.726C577.488 163.689 579.891 166.092 582.854 166.092Z"
                fill="white" />
            <path class="st0"
                d="M629.356 383.402C632.319 383.402 634.722 380.999 634.722 378.036C634.722 375.073 632.319 372.67 629.356 372.67C626.393 372.67 623.99 375.073 623.99 378.036C623.99 380.999 626.393 383.402 629.356 383.402Z"
                fill="white" />
            <path class="st0"
                d="M675.859 273.406C678.822 273.406 681.225 271.003 681.225 268.04C681.225 265.077 678.822 262.674 675.859 262.674C672.895 262.674 670.493 265.077 670.493 268.04C670.493 271.003 672.895 273.406 675.859 273.406Z"
                fill="white" />
            <path class="st0"
                d="M673.176 209.911C676.14 209.911 678.542 207.508 678.542 204.545C678.542 201.582 676.14 199.179 673.176 199.179C670.213 199.179 667.811 201.582 667.811 204.545C667.811 207.508 670.213 209.911 673.176 209.911Z"
                fill="white" />
            <path class="st0"
                d="M671.388 136.58C674.352 136.58 676.754 134.177 676.754 131.214C676.754 128.251 674.352 125.848 671.388 125.848C668.425 125.848 666.022 128.251 666.022 131.214C666.022 134.177 668.425 136.58 671.388 136.58Z"
                fill="white" />
            <path class="st0"
                d="M719.679 76.6628C722.643 76.6628 725.045 74.2605 725.045 71.2971C725.045 68.3337 722.643 65.9314 719.679 65.9314C716.716 65.9314 714.313 68.3337 714.313 71.2971C714.313 74.2605 716.716 76.6628 719.679 76.6628Z"
                fill="white" />
            <path class="st0"
                d="M618.366 82.7314C621.329 82.7314 623.731 80.3291 623.731 77.3657C623.731 74.4023 621.329 72 618.366 72C615.402 72 613 74.4023 613 77.3657C613 80.3291 615.402 82.7314 618.366 82.7314Z"
                fill="white" />
            <path class="st0"
                d="M746.366 10.7314C749.329 10.7314 751.731 8.32911 751.731 5.36572C751.731 2.40232 749.329 1.52588e-05 746.366 1.52588e-05C743.402 1.52588e-05 741 2.40232 741 5.36572C741 8.32911 743.402 10.7314 746.366 10.7314Z"
                fill="white" />
            <path class="st0"
                d="M802.847 175.034C805.811 175.034 808.213 172.631 808.213 169.668C808.213 166.705 805.811 164.302 802.847 164.302C799.884 164.302 797.481 166.705 797.481 169.668C797.481 172.631 799.884 175.034 802.847 175.034Z"
                fill="white" />
            <path class="st0"
                d="M835.936 96.337C838.899 96.337 841.302 93.9347 841.302 90.9713C841.302 88.0079 838.899 85.6056 835.936 85.6056C832.973 85.6056 830.57 88.0079 830.57 90.9713C830.57 93.9347 832.973 96.337 835.936 96.337Z"
                fill="white" />
            <path class="st0"
                d="M847.562 219.748C850.525 219.748 852.928 217.345 852.928 214.382C852.928 211.419 850.525 209.016 847.562 209.016C844.599 209.016 842.196 211.419 842.196 214.382C842.196 217.345 844.599 219.748 847.562 219.748Z"
                fill="white" />
            <path class="st0"
                d="M768.865 218.854C771.828 218.854 774.23 216.451 774.23 213.488C774.23 210.525 771.828 208.122 768.865 208.122C765.901 208.122 763.499 210.525 763.499 213.488C763.499 216.451 765.901 218.854 768.865 218.854Z"
                fill="white" />
            <path class="st0"
                d="M832.359 336.9C835.322 336.9 837.725 334.497 837.725 331.534C837.725 328.571 835.322 326.168 832.359 326.168C829.395 326.168 826.993 328.571 826.993 331.534C826.993 334.497 829.395 336.9 832.359 336.9Z"
                fill="white" />
            <path class="st0"
                d="M802.366 270.732C805.329 270.732 807.731 268.329 807.731 265.366C807.731 262.403 805.329 260 802.366 260C799.402 260 797 262.403 797 265.366C797 268.329 799.402 270.732 802.366 270.732Z"
                fill="white" />
            <path class="st0"
                d="M739.353 291.291C742.316 291.291 744.719 288.888 744.719 285.925C744.719 282.962 742.316 280.559 739.353 280.559C736.39 280.559 733.987 282.962 733.987 285.925C733.987 288.888 736.39 291.291 739.353 291.291Z"
                fill="white" />
            <path class="st0"
                d="M761.71 410.231C764.674 410.231 767.076 407.828 767.076 404.865C767.076 401.902 764.674 399.499 761.71 399.499C758.747 399.499 756.345 401.902 756.345 404.865C756.345 407.828 758.747 410.231 761.71 410.231Z"
                fill="white" />
            <path class="st0"
                d="M826.994 391.451C829.957 391.451 832.359 389.048 832.359 386.085C832.359 383.122 829.957 380.719 826.994 380.719C824.03 380.719 821.628 383.122 821.628 386.085C821.628 389.048 824.03 391.451 826.994 391.451Z"
                fill="white" />
            <path class="st0"
                d="M907.479 395.922C910.442 395.922 912.845 393.519 912.845 390.556C912.845 387.593 910.442 385.19 907.479 385.19C904.516 385.19 902.113 387.593 902.113 390.556C902.113 393.519 904.516 395.922 907.479 395.922Z"
                fill="white" />
            <path class="st0"
                d="M763.5 470.148C766.464 470.148 768.866 467.745 768.866 464.782C768.866 461.819 766.464 459.416 763.5 459.416C760.537 459.416 758.135 461.819 758.135 464.782C758.135 467.745 760.537 470.148 763.5 470.148Z"
                fill="white" />
            <path class="st0"
                d="M918.21 507.708C921.174 507.708 923.576 505.305 923.576 502.342C923.576 499.379 921.174 496.976 918.21 496.976C915.247 496.976 912.845 499.379 912.845 502.342C912.845 505.305 915.247 507.708 918.21 507.708Z"
                fill="white" />
            <path d="M127.117 414.993L42.1167 424.993" stroke="white" stroke-width="2" class="st0" />
            <path d="M6.89746 362.559L36.8975 423.559" stroke="white" stroke-width="2" class="st0" />
            <path d="M62.4883 316.108L38.4883 425.108" stroke="white" class="st0" />
            <path d="M62.4136 313.719L130.413 413.719" stroke="white" class="st0" />
            <path d="M62.313 314.39L6.31299 359.39" stroke="white" class="st0" />
            <path d="M12.498 293.045L6.49805 359.045" stroke="white" class="st0" />
            <path d="M11.7319 292.578L107.732 231.578" stroke="white" class="st0" />
            <path d="M12.2012 292.542L62.2012 314.542" stroke="white" class="st0" />
            <path d="M180.852 350.477L61.8516 313.477" stroke="white" class="st0" />
            <path d="M181.393 350.309L130.393 415.309" stroke="white" class="st0" />
            <path d="M180.003 350.082L172.003 253.082" stroke="white" stroke-width="2" class="st0" />
            <path d="M61.5625 314.758L107.563 231.758" stroke="white" class="st0" />
            <path d="M61.7529 315.565L170.753 253.565" stroke="white" class="st0" />
            <path d="M129.516 413.876L170.516 253.876" stroke="white" class="st0" />
            <path class="st0"
                d="M130.452 419.279C133.416 419.279 135.818 416.876 135.818 413.913C135.818 410.95 133.416 408.547 130.452 408.547C127.489 408.547 125.086 410.95 125.086 413.913C125.086 416.876 127.489 419.279 130.452 419.279Z"
                fill="white" />
            <path class="st0"
                d="M38.3657 430.732C41.3291 430.732 43.7314 428.329 43.7314 425.366C43.7314 422.403 41.3291 420 38.3657 420C35.4023 420 33 422.403 33 425.366C33 428.329 35.4023 430.732 38.3657 430.732Z"
                fill="white" />
            <path class="st0"
                d="M62.3803 319.908C65.3437 319.908 67.746 317.505 67.746 314.542C67.746 311.579 65.3437 309.176 62.3803 309.176C59.417 309.176 57.0146 311.579 57.0146 314.542C57.0146 317.505 59.417 319.908 62.3803 319.908Z"
                fill="white" />
            <path class="st0"
                d="M12.3008 297.551C15.2642 297.551 17.6665 295.148 17.6665 292.185C17.6665 289.222 15.2642 286.819 12.3008 286.819C9.33736 286.819 6.93506 289.222 6.93506 292.185C6.93506 295.148 9.33736 297.551 12.3008 297.551Z"
                fill="white" />
            <path class="st0"
                d="M6.0405 365.517C9.0039 365.517 11.4062 363.114 11.4062 360.151C11.4062 357.188 9.0039 354.785 6.0405 354.785C3.07711 354.785 0.674805 357.188 0.674805 360.151C0.674805 363.114 3.07711 365.517 6.0405 365.517Z"
                fill="white" />
            <path d="M61.6978 315.602L173.698 230.602" stroke="white" class="st0" />
            <path d="M170.504 253.935L173.504 230.935" stroke="white" class="st0" />
            <path d="M241.563 264.9L173.563 231.9" stroke="white" stroke-width="2" class="st0" />
            <path d="M240.824 265.433L295.824 345.433" stroke="white" stroke-width="2" class="st0" />
            <path d="M180.947 351.001L296.942 344.896" stroke="white" stroke-width="2" class="st0" />
            <path d="M241.923 264.494L170.923 253.494" stroke="white" class="st0" />
            <path d="M294.7 346.4L170.7 253.4" stroke="white" class="st0" />
            <path d="M240.411 265.285L181.411 350.285" stroke="white" class="st0" />
            <path d="M340.254 205.431L240.254 264.431" stroke="white" class="st0" />
            <path d="M349.366 290.34L297.366 346.34" stroke="white" class="st0" />
            <path d="M355.571 374.903L296.571 346.903" stroke="white" stroke-width="2" class="st0" />
            <path d="M355.571 374.903L296.571 346.903" stroke="white" stroke-width="2" class="st0" />
            <path d="M356.378 373.074L454.378 413.074" stroke="white" stroke-width="2" class="st0" />
            <path d="M501.94 274.341L451.94 412.341" stroke="white" stroke-width="2" class="st0" />
            <path d="M501.984 274.179L487.984 351.179" stroke="white" stroke-width="2" class="st0" />
            <path d="M638.131 310.483L487.131 351.483" stroke="white" class="st0" />
            <path d="M638.495 310.072L628.495 379.072" stroke="white" class="st0" />
            <path d="M637.868 310.482L502.868 273.482" stroke="white" class="st0" />
            <path d="M444.803 292.404L487.803 350.404" stroke="white" stroke-width="2" class="st0" />
            <path d="M356.302 374.178L443.302 289.284" stroke="white" stroke-width="2" class="st0" />
            <path d="M349.498 289.958L356.498 373.958" stroke="white" class="st0" />
            <path d="M340.518 204.133L318.518 124.133" stroke="white" class="st0" />
            <path d="M340.894 204.511L506.894 168.511" stroke="white" class="st0" />
            <path d="M341.142 204.52L429.142 230.52" stroke="white" class="st0" />
            <path d="M349.698 290.602L428.698 230.602" stroke="white" class="st0" />
            <path d="M505.316 169.387L429.316 231.387" stroke="white" class="st0" />
            <path d="M341.498 204.953L349.498 288.953" stroke="white" class="st0" />
            <path d="M341.317 204.614L442.317 287.614" stroke="white" class="st0" />
            <path d="M240.113 264.513L348.113 289.513" stroke="white" class="st0" />
            <path d="M450.617 410.322L349.618 290.322" stroke="white" class="st0" />
            <path d="M450.501 411.024L444.614 290.024" stroke="white" class="st0" />
            <path d="M348.995 290.5L444.995 289.49" stroke="white" class="st0" />
            <path d="M429.484 230.875L444.484 288.875" stroke="white" class="st0" />
            <path d="M505.446 168.225L444.446 289.225" stroke="white" class="st0" />
            <path d="M502.133 273.482L444.133 289.482" stroke="white" class="st0" />
            <path d="M502.76 272.438L429.76 232.438" stroke="white" class="st0" />
            <path d="M502.594 271.708L582.594 160.708" stroke="white" class="st0" />
            <path d="M506.948 168.503L582.948 160.503" stroke="white" class="st0" />
            <path d="M614.524 260.154L582.524 161.154" stroke="white" class="st0" />
            <path d="M673.786 204.452L582.786 161.452" stroke="white" class="st0" />
            <path d="M673.388 204.684L739.388 285.684" stroke="white" class="st0" />
            <path d="M628.677 378.618L738.677 285.618" stroke="white" class="st0" />
            <path d="M629.093 378.509L761.093 403.509" stroke="white" class="st0" />
            <path d="M762.5 465.016L760.5 404.016" stroke="white" class="st0" />
            <path d="M762.774 464.554L906.774 391.554" stroke="white" class="st0" />
            <path d="M763.115 464.513L919.115 501.513" stroke="white" class="st0" />
            <path d="M907.497 391.946L919.497 501.946" stroke="white" class="st0" />
            <path d="M906.962 392.499L828.962 386.499" stroke="white" class="st0" />
            <path d="M907.044 391.498L761.044 404.498" stroke="white" class="st0" />
            <path d="M827.132 386.482L761.132 404.482" stroke="white" class="st0" />
            <path d="M917.735 502.424L760.735 404.424" stroke="white" class="st0" />
            <path d="M833.354 332.354L761.354 404.354" stroke="white" class="st0" />
            <path d="M833.499 332.037L829.499 386.037" stroke="white" class="st0" />
            <path d="M832.546 332.21L802.546 267.21" stroke="white" class="st0" />
            <path d="M769.421 213.73L803.421 266.73" stroke="white" class="st0" />
            <path d="M848.381 214.324L803.381 267.324" stroke="white" class="st0" />
            <path d="M848 214.5H771" stroke="white" class="st0" />
            <path d="M847.642 214.35L803.643 169.35" stroke="white" class="st0" />
            <path d="M770.597 213.704L803.597 168.704" stroke="white" class="st0" />
            <path d="M836.463 91.1898L804.463 169.19" stroke="white" class="st0" />
            <path d="M836.435 91.2461L767.435 213.246" stroke="white" class="st0" />
            <path d="M832.562 332.241L766.562 212.241" stroke="white" class="st0" />
            <path d="M760.509 403.092L738.509 286.092" stroke="white" class="st0" />
            <path d="M832.776 333.447L738.776 286.447" stroke="white" class="st0" />
            <path d="M769.462 213.19L739.462 286.19" stroke="white" class="st0" />
            <path d="M826.625 386.33L738.625 286.33" stroke="white" class="st0" />
            <path d="M673.474 205.158L638.474 310.158" stroke="white" class="st0" />
            <path d="M674.5 203.984L676.5 267.984" stroke="white" class="st0" />
            <path d="M767.255 214.43L676.255 268.43" stroke="white" class="st0" />
            <path d="M740.86 287.48L675.86 268.48" stroke="white" class="st0" />
            <path d="M638.625 309.669L675.625 267.669" stroke="white" class="st0" />
            <path d="M760.579 401.269L675.579 268.269" stroke="white" class="st0" />
            <path d="M629.539 376.806L675.539 267.806" stroke="white" class="st0" />
            <path d="M674.058 203.503L769.057 214.503" stroke="white" class="st0" />
            <path d="M673.707 203.707L615.707 261.707" stroke="white" stroke-width="2" class="st0" />
            <path d="M676.904 267.995L614.904 261.995" stroke="white" stroke-width="2" class="st0" />
            <path d="M617.463 78.1895L583.463 161.19" stroke="white" class="st0" />
            <path d="M619.975 76.5006L719.975 71.5006" stroke="white" class="st0" />
            <path d="M620.367 76.66L671.367 131.66" stroke="white" class="st0" />
            <path d="M585.844 159.525L670.844 131.525" stroke="white" class="st0" />
            <path d="M673.5 205.021L670.5 132.021" stroke="white" class="st0" />
            <path d="M768.681 213.385L670.681 132.385" stroke="white" class="st0" />
            <path d="M616.539 259.806L670.539 131.806" stroke="white" class="st0" />
            <path d="M720.387 72.3163L671.387 132.316" stroke="white" class="st0" />
            <path d="M720.543 72.8396L584.543 160.84" stroke="white" stroke-width="2" class="st0" />
            <path d="M720.771 71.3629L801.771 169.363" stroke="white" stroke-width="2" class="st0" />
            <path d="M802 266.99L803 168.99" stroke="white" stroke-width="2" class="st0" />
            <path d="M720.473 71.8369L769.473 213.837" stroke="white" class="st0" />
            <path d="M720.471 72.1666L673.471 205.167" stroke="white" class="st0" />
            <path d="M720.081 71.5066L836.081 90.5066" stroke="white" class="st0" />
            <path d="M745.468 6.17711L720.468 72.1771" stroke="white" class="st0" />
            <path d="M745.244 6.43625L620.244 76.4363" stroke="white" class="st0" />
            <path d="M615.054 260.497L504.066 272.605" stroke="white" class="st0" />
            <path d="M614.68 260.384L506.68 170.384" stroke="white" class="st0" />
            <path d="M615.457 259.798L638.457 311.798" stroke="white" class="st0" />
            <path d="M501.501 272.976L506.501 169.976" stroke="white" class="st0" />
            <path d="M450.568 411.748L485.568 351.748" stroke="white" class="st0" />
            <path d="M341.476 205.152L296.476 346.152" stroke="white" class="st0" />
            <path d="M239.564 264.756L318.564 123.756" stroke="white" class="st0" />
            <path d="M506.884 169.486L318.884 124.486" stroke="white" class="st0" />
            <path d="M428.651 231.358L318.651 124.358" stroke="white" class="st0" />
            <path d="M5.60791 359.69L107.608 230.69" stroke="white" class="st0" />
            <path d="M6.20117 359.542L131.201 414.542" stroke="white" class="st0" />
            <path d="M170.829 252.47L107.829 229.47" stroke="white" class="st0" />
        </svg>